<svg width="68" height="34" viewBox="0 0 68 34" fill="none" xmlns="http://www.w3.org/2000/svg">
<mask id="mask0_104_2186" style="mask-type:alpha" maskUnits="userSpaceOnUse" x="0" y="0" width="68" height="34">
<path fill-rule="evenodd" clip-rule="evenodd" d="M31.9082 0.619872C31.4745 0.84568 30.9325 1.27729 30.7039 1.57876C30.0449 2.44752 25.7202 11.362 25.7202 11.8516C25.7202 12.3143 26.5261 13.7317 27.9588 15.7882C29.1161 17.4495 29.3368 17.4327 30.1757 15.62C32.3006 11.0287 32.9918 9.74617 33.5135 9.42805C33.804 9.25101 34.177 9.10574 34.3426 9.1054C34.8365 9.10439 35.9017 9.72566 36.3793 10.2935C36.625 10.5855 38.2123 13.6342 39.9069 17.0684C47.0146 31.474 46.9147 31.281 47.6443 32.0317C48.6154 33.0311 50.0658 33.7006 51.4411 33.7844C52.9072 33.8738 54.1662 33.3986 55.3638 32.3039C56.3135 31.4358 56.1544 31.7238 62.6021 19.1929C67.9533 8.79317 68 8.69178 68 7.50743C68 6.55779 67.9444 6.36662 67.5547 5.97671C66.9002 5.32232 65.7411 5.29912 59.0061 5.80605C55.8162 6.04615 52.6011 6.28608 51.8614 6.33938C49.2565 6.52702 47.5026 7.19217 46.2774 8.45707C45.353 9.41141 44.213 11.1158 44.2135 11.5427C44.2139 11.7277 44.5817 12.5221 45.0309 13.3081C46.1633 15.2893 46.4076 15.3053 47.4757 13.4665C48.3709 11.9257 49.0395 11.1955 49.875 10.8465C50.1877 10.7158 51.3677 10.5369 52.4974 10.4492C55.1047 10.2462 60.5277 10.2391 60.842 10.4381C61.09 10.5951 60.9004 11.02 58.9235 14.7373C58.53 15.4771 57.696 17.066 57.07 18.2682C55.2419 21.7785 53.7943 24.4378 53.443 24.9313C53.2634 25.1835 52.8568 25.4755 52.5392 25.5803C51.3495 25.9731 50.7962 25.3328 48.474 20.8743C47.4865 18.9786 46.3778 16.86 46.0101 16.1665C44.5114 13.3401 40.362 4.90972 39.4994 2.93915C39.0827 1.98682 38.051 0.878467 37.2358 0.507221C36.7076 0.266617 36.1486 0.201716 34.6301 0.205079C32.912 0.20861 32.6091 0.254847 31.9082 0.619872ZM1.28739 5.4417C0.52854 5.64464 0.000841092 6.3762 5.39907e-07 7.22647C-0.000671902 7.83496 0.626884 9.53449 1.34556 10.8702C1.59419 11.3325 2.80358 13.6402 4.0328 15.9983C5.26203 18.3565 6.7382 21.1559 7.31314 22.2194C7.88808 23.2829 8.79739 24.9853 9.334 26.0025C10.9564 29.0785 12.755 31.8086 13.6645 32.5756C14.6031 33.3672 15.2224 33.5337 16.8944 33.4442C19.7595 33.2907 20.9071 32.3559 23.0155 28.458C24.5732 25.5781 25.0478 24.5372 25.0478 24.0005C25.0478 23.5778 22.702 19.5008 22.0959 18.8701C21.5966 18.3507 21.4603 18.459 20.4708 20.1611C20.0546 20.877 19.2898 22.1923 18.7715 23.0841C17.5983 25.1026 16.9813 25.7503 16.2317 25.7503C15.1503 25.7503 14.9573 25.4843 12.2663 20.2858C11.5004 18.8062 10.6708 17.2173 10.4227 16.755C9.05443 14.2052 7.22808 10.6469 7.22808 10.5309C7.22808 10.4572 9.57708 10.4418 12.4482 10.4966C17.6617 10.5961 17.6692 10.5968 18.402 11.0262C18.8057 11.2628 19.4284 11.7988 19.7861 12.2173C20.4306 12.9714 23.4731 17.9738 26.6364 23.4804C27.5395 25.0525 28.4214 26.5437 28.5964 26.7944C28.7713 27.0449 28.9143 27.2881 28.9143 27.3348C28.9143 27.5803 30.5621 30.1284 31.0829 30.6883C32.191 31.8794 33.6887 32.2743 34.9061 31.6966C35.6011 31.3667 36.4394 30.5072 37.3582 29.1828C38.6878 27.2662 41.5226 22.7258 41.5204 22.5165C41.5174 22.234 40.2282 19.9164 39.9931 19.7712C39.7109 19.5968 39.4394 19.943 36.991 23.5996C35.7188 25.4998 34.5235 27.107 34.2823 27.2418C33.3156 27.7822 32.9723 27.4286 31.2322 24.1003C30.2922 22.3021 27.571 17.484 25.3744 13.7285C24.8877 12.8962 24.1043 11.543 23.6338 10.7215C22.5776 8.87724 21.6325 7.79898 20.5607 7.21571C19.0979 6.41925 19.4485 6.46162 8.34904 5.74502C5.40576 5.55502 2.75802 5.37007 2.46517 5.33426C2.17232 5.29845 1.64227 5.3467 1.28739 5.4417Z" fill="url(#paint0_linear_104_2186)"/>
</mask>
<g mask="url(#mask0_104_2186)">
<path d="M24.7598 10.9763C24.7768 9.81915 24.8006 7.43348 24.7598 7.1476C28.2312 3.11476 35.4192 -4.94071 36.3994 -4.89987C37.6246 -4.84882 72.5436 -8.77957 76.2703 -6.89077C79.997 -5.00197 80.3544 12.763 79.8439 17.1021C79.3333 21.4412 67.03 34.816 62.3333 36.8579C58.576 38.4915 51.1021 36.1773 47.8348 34.816L41.8108 22.309L39.7688 18.8888H35.9399L28.3333 17.7147L24.7598 10.9763Z" fill="white"/>
<path fill-rule="evenodd" clip-rule="evenodd" d="M75.23 -7.22948C75.6922 -7.15427 76.0532 -7.05797 76.2933 -6.93628C76.7727 -6.69333 77.1922 -6.19856 77.5596 -5.51979C77.9276 -4.84008 78.2465 -3.97018 78.5219 -2.96875C79.0726 -0.965741 79.451 1.5709 79.6968 4.18202C80.1884 9.40381 80.1504 14.9337 79.8945 17.1081C79.8297 17.6593 79.5785 18.3491 79.1831 19.136C78.7873 19.9237 78.2451 20.8121 77.595 21.7612C76.2948 23.6596 74.5607 25.8038 72.6964 27.8756C70.8319 29.9475 68.8364 31.9478 67.0128 33.5581C65.1905 35.1672 63.5358 36.3908 62.3537 36.9047C61.4053 37.3171 60.2257 37.479 58.9419 37.4705C57.6576 37.462 56.2657 37.2828 54.8904 37.0101C52.1399 36.4648 49.4514 35.5448 47.8152 34.8631L47.7973 34.8556L41.7658 22.3333L39.7398 18.9399H35.936L28.3002 17.7612L24.7085 10.9886L24.7087 10.9755C24.7172 10.3971 24.7274 9.51159 24.7304 8.73504C24.7319 8.34675 24.7316 7.98588 24.7283 7.70433C24.7251 7.42074 24.7188 7.22218 24.7092 7.15485L24.7059 7.1319L24.7211 7.11432C26.4571 5.09759 29.1224 2.07493 31.4765 -0.438636C32.6535 -1.69532 33.7533 -2.8254 34.6204 -3.63901C35.0539 -4.04569 35.4302 -4.3742 35.7295 -4.60007C35.879 -4.71294 36.0105 -4.80106 36.1211 -4.86054C36.2295 -4.91885 36.3255 -4.95402 36.4015 -4.95085C36.4742 -4.94782 36.6787 -4.9598 37.0041 -4.98544C37.3277 -5.01094 37.7672 -5.0496 38.3069 -5.09905C39.0805 -5.16994 40.0595 -5.26296 41.1974 -5.37108C41.6468 -5.41378 42.1211 -5.45884 42.6172 -5.50582C46.1214 -5.83765 50.718 -6.26521 55.3927 -6.63534C60.0674 -7.00547 64.8209 -7.31822 68.6392 -7.42036C70.5482 -7.47142 72.2243 -7.46986 73.5402 -7.39637C74.1981 -7.35962 74.7668 -7.30485 75.23 -7.22948ZM37.0121 -4.88366C36.6896 -4.85825 36.4777 -4.84549 36.3973 -4.84885C36.3507 -4.85078 36.2758 -4.82781 36.1695 -4.77063C36.0654 -4.71463 35.9385 -4.62994 35.791 -4.51857C35.496 -4.29596 35.1228 -3.97034 34.6903 -3.56455C33.8255 -2.75322 32.7276 -1.62503 31.5511 -0.368846C29.2049 2.13627 26.5489 5.14785 24.8131 7.16392C24.8222 7.25377 24.8275 7.44804 24.8304 7.70315C24.8337 7.98547 24.834 8.34694 24.8325 8.73544C24.8295 9.50663 24.8195 10.3851 24.811 10.9639L28.3664 17.6681L35.9438 18.8378H39.7977L41.8558 22.2849L47.8724 34.7763C49.5052 35.4552 52.1776 36.3682 54.9102 36.91C56.2815 37.1818 57.6667 37.3599 58.9426 37.3684C60.219 37.3769 61.3827 37.2156 62.313 36.8111C63.4792 36.3041 65.1236 35.0901 66.9452 33.4816C68.7654 31.8742 70.7582 29.8768 72.6205 27.8073C74.4828 25.7378 76.2138 23.5971 77.5108 21.7035C78.1593 20.7567 78.6988 19.8724 79.0919 19.0901C79.4854 18.307 79.7304 17.6297 79.7931 17.0961C80.0478 14.9314 80.0864 9.40925 79.5952 4.19159C79.3496 1.58299 78.9719 -0.946946 78.4234 -2.94168C78.1492 -3.93912 77.8327 -4.80089 77.4698 -5.47118C77.1064 -6.1424 76.6995 -6.61596 76.2472 -6.84521C76.0215 -6.95962 75.673 -7.05395 75.2136 -7.12871C74.7553 -7.20329 74.1904 -7.25779 73.5345 -7.29443C72.2227 -7.3677 70.5497 -7.36933 68.6419 -7.3183C64.8264 -7.21624 60.0749 -6.90365 55.4008 -6.53357C50.7268 -6.1635 46.131 -5.73599 42.6268 -5.40418C42.1308 -5.35721 41.6566 -5.31216 41.2072 -5.26945C40.0693 -5.16133 39.09 -5.06828 38.3162 -4.99737C37.7765 -4.94792 37.3364 -4.90921 37.0121 -4.88366Z" fill="white"/>
</g>
<mask id="mask1_104_2186" style="mask-type:alpha" maskUnits="userSpaceOnUse" x="0" y="0" width="68" height="34">
<path fill-rule="evenodd" clip-rule="evenodd" d="M31.9082 0.619872C31.4745 0.84568 30.9325 1.27729 30.7039 1.57876C30.0449 2.44752 25.7202 11.362 25.7202 11.8516C25.7202 12.3143 26.5261 13.7317 27.9588 15.7882C29.1161 17.4495 29.3368 17.4327 30.1757 15.62C32.3006 11.0287 32.9918 9.74617 33.5135 9.42805C33.804 9.25101 34.177 9.10574 34.3426 9.1054C34.8365 9.10439 35.9017 9.72566 36.3793 10.2935C36.625 10.5855 38.2123 13.6342 39.9069 17.0684C47.0146 31.474 46.9147 31.281 47.6443 32.0317C48.6154 33.0311 50.0658 33.7006 51.4411 33.7844C52.9072 33.8738 54.1662 33.3986 55.3638 32.3039C56.3135 31.4358 56.1544 31.7238 62.6021 19.1929C67.9533 8.79317 68 8.69178 68 7.50743C68 6.55779 67.9444 6.36662 67.5547 5.97671C66.9002 5.32232 65.7411 5.29912 59.0061 5.80605C55.8162 6.04615 52.6011 6.28608 51.8614 6.33938C49.2565 6.52702 47.5026 7.19217 46.2774 8.45707C45.353 9.41141 44.213 11.1158 44.2135 11.5427C44.2139 11.7277 44.5817 12.5221 45.0309 13.3081C46.1633 15.2893 46.4076 15.3053 47.4757 13.4665C48.3709 11.9257 49.0395 11.1955 49.875 10.8465C50.1877 10.7158 51.3677 10.5369 52.4974 10.4492C55.1047 10.2462 60.5277 10.2391 60.842 10.4381C61.09 10.5951 60.9004 11.02 58.9235 14.7373C58.53 15.4771 57.696 17.066 57.07 18.2682C55.2419 21.7785 53.7943 24.4378 53.443 24.9313C53.2634 25.1835 52.8568 25.4755 52.5392 25.5803C51.3495 25.9731 50.7962 25.3328 48.474 20.8743C47.4865 18.9786 46.3778 16.86 46.0101 16.1665C44.5114 13.3401 40.362 4.90972 39.4994 2.93915C39.0827 1.98682 38.051 0.878467 37.2358 0.507221C36.7076 0.266617 36.1486 0.201716 34.6301 0.205079C32.912 0.20861 32.6091 0.254847 31.9082 0.619872ZM1.28739 5.4417C0.52854 5.64464 0.000841092 6.3762 5.39907e-07 7.22647C-0.000671902 7.83496 0.626884 9.53449 1.34556 10.8702C1.59419 11.3325 2.80358 13.6402 4.0328 15.9983C5.26203 18.3565 6.7382 21.1559 7.31314 22.2194C7.88808 23.2829 8.79739 24.9853 9.334 26.0025C10.9564 29.0785 12.755 31.8086 13.6645 32.5756C14.6031 33.3672 15.2224 33.5337 16.8944 33.4442C19.7595 33.2907 20.9071 32.3559 23.0155 28.458C24.5732 25.5781 25.0478 24.5372 25.0478 24.0005C25.0478 23.5778 22.702 19.5008 22.0959 18.8701C21.5966 18.3507 21.4603 18.459 20.4708 20.1611C20.0546 20.877 19.2898 22.1923 18.7715 23.0841C17.5983 25.1026 16.9813 25.7503 16.2317 25.7503C15.1503 25.7503 14.9573 25.4843 12.2663 20.2858C11.5004 18.8062 10.6708 17.2173 10.4227 16.755C9.05443 14.2052 7.22808 10.6469 7.22808 10.5309C7.22808 10.4572 9.57708 10.4418 12.4482 10.4966C17.6617 10.5961 17.6692 10.5968 18.402 11.0262C18.8057 11.2628 19.4284 11.7988 19.7861 12.2173C20.4306 12.9714 23.4731 17.9738 26.6364 23.4804C27.5395 25.0525 28.4214 26.5437 28.5964 26.7944C28.7713 27.0449 28.9143 27.2881 28.9143 27.3348C28.9143 27.5803 30.5621 30.1284 31.0829 30.6883C32.191 31.8794 33.6887 32.2743 34.9061 31.6966C35.6011 31.3667 36.4394 30.5072 37.3582 29.1828C38.6878 27.2662 41.5226 22.7258 41.5204 22.5165C41.5174 22.234 40.2282 19.9164 39.9931 19.7712C39.7109 19.5968 39.4394 19.943 36.991 23.5996C35.7188 25.4998 34.5235 27.107 34.2823 27.2418C33.3156 27.7822 32.9723 27.4286 31.2322 24.1003C30.2922 22.3021 27.571 17.484 25.3744 13.7285C24.8877 12.8962 24.1043 11.543 23.6338 10.7215C22.5776 8.87724 21.6325 7.79898 20.5607 7.21571C19.0979 6.41925 19.4485 6.46162 8.34904 5.74502C5.40576 5.55502 2.75802 5.37007 2.46517 5.33426C2.17232 5.29845 1.64227 5.3467 1.28739 5.4417Z" fill="url(#paint1_linear_104_2186)"/>
</mask>
<g mask="url(#mask1_104_2186)">
<path d="M24.7087 10.9688C24.6979 9.80915 24.6827 7.41823 24.7087 7.13173C22.5026 3.09003 17.9346 -4.98315 17.3117 -4.94222C16.5331 -4.89106 -5.65794 -8.83044 -8.02628 -6.93749C-10.3946 -5.04454 -10.6217 12.7594 -10.2973 17.1081C-9.97286 21.4568 -2.15409 34.8609 0.830658 36.9073C3.21846 38.5445 7.96812 36.2252 10.0445 34.8609L38.3904 40.6865L42.2703 22.7684L39.973 18.174L30.6817 21.0838L24.7087 10.9688Z" fill="white"/>
<path fill-rule="evenodd" clip-rule="evenodd" d="M-7.37265 -7.27589C-7.66824 -7.20004 -7.90183 -7.10227 -8.05813 -6.97734C-8.36645 -6.73091 -8.63283 -6.23319 -8.86541 -5.55571C-9.09887 -4.87563 -9.30131 -4.00495 -9.47616 -3.00206C-9.82591 -0.996035 -10.0663 1.54501 -10.2225 4.16139C-10.5349 9.39389 -10.5106 14.9345 -10.3482 17.1119C-10.2664 18.2084 -9.71358 19.8685 -8.88821 21.7689C-8.06203 23.6711 -6.9601 25.82 -5.77526 27.8964C-4.59042 29.9728 -3.32216 31.9776 -2.16311 33.5917C-1.00562 35.2036 0.0473175 36.4321 0.801807 36.9494C1.41013 37.3665 2.16611 37.5298 2.98624 37.5212C3.80639 37.5126 4.69403 37.3321 5.56961 37.0584C7.31079 36.514 9.01218 35.598 10.0549 34.9152L38.4296 40.7467L42.324 22.7617L39.9992 18.1123L30.7051 21.023L24.7596 10.9546C24.7543 10.3747 24.7479 9.49497 24.746 8.72273C24.7441 7.94233 24.7469 7.27653 24.7596 7.13636L24.761 7.12091L24.7535 7.1073C23.6503 5.08614 21.9565 2.05684 20.4604 -0.462274C19.7125 -1.72171 19.0135 -2.85434 18.4623 -3.66986C18.1869 -4.07743 17.9476 -4.40697 17.757 -4.63376C17.6619 -4.74699 17.5776 -4.83609 17.5062 -4.89668C17.4705 -4.92695 17.4367 -4.95124 17.4053 -4.96781C17.3745 -4.984 17.3413 -4.9953 17.3084 -4.99314C17.2886 -4.99184 17.2472 -4.99369 17.1819 -4.99963C17.1178 -5.00545 17.0339 -5.01487 16.9312 -5.02763C16.7258 -5.05314 16.4468 -5.09185 16.1039 -5.14141C15.6123 -5.21244 14.9902 -5.30565 14.2672 -5.414C13.9815 -5.4568 13.6801 -5.50197 13.3648 -5.54906C11.1378 -5.88162 8.2164 -6.31016 5.24519 -6.68116C2.27424 -7.05212 -0.747654 -7.36569 -3.1754 -7.4681C-4.38913 -7.5193 -5.4558 -7.5178 -6.29396 -7.44397C-6.71302 -7.40706 -7.07619 -7.35197 -7.37265 -7.27589ZM17.1726 -4.89795C17.2371 -4.8921 17.2862 -4.88936 17.3151 -4.89126C17.3211 -4.89165 17.3345 -4.88966 17.3577 -4.87746C17.3802 -4.86563 17.4076 -4.84642 17.4402 -4.81882C17.5052 -4.76367 17.5851 -4.67958 17.6788 -4.56808C17.8659 -4.34541 18.1029 -4.01937 18.3778 -3.61269C18.9272 -2.79969 19.6249 -1.6691 20.3726 -0.410143C21.8645 2.102 23.5536 5.12236 24.6566 7.14288C24.6445 7.31685 24.642 7.97135 24.6439 8.72298C24.6458 9.50163 24.6523 10.3894 24.6577 10.9693L24.6578 10.983L30.6583 21.1446L39.9468 18.2358L42.2166 22.7752L38.3512 40.6263L10.0341 34.8067L10.0165 34.8182C8.98116 35.4985 7.27895 36.417 5.53914 36.9609C4.66929 37.2329 3.79203 37.4106 2.98517 37.4191C2.17827 37.4275 1.44512 37.2667 0.859543 36.8652C0.121658 36.3593 -0.922039 35.1449 -2.08017 33.5321C-3.23672 31.9215 -4.50308 29.9198 -5.68658 27.8458C-6.87008 25.7717 -7.97021 23.6263 -8.79457 21.7282C-9.61974 19.8283 -10.166 18.1821 -10.2464 17.1043C-10.4083 14.9331 -10.4328 9.39735 -10.1206 4.16747C-9.96451 1.55265 -9.72437 -0.984014 -9.37558 -2.98452C-9.20116 -3.98489 -8.99983 -4.84968 -8.76883 -5.52257C-8.53694 -6.19805 -8.27815 -6.67079 -7.99438 -6.89759C-7.85464 -7.00929 -7.63733 -7.10257 -7.34727 -7.177C-7.05811 -7.25121 -6.7009 -7.30564 -6.285 -7.34227C-5.45323 -7.41553 -4.39159 -7.41722 -3.1797 -7.3661C-0.756207 -7.26387 2.26238 -6.95072 5.23254 -6.57985C8.20247 -6.20901 11.1228 -5.78062 13.3497 -5.44808C13.6649 -5.40101 13.9662 -5.35586 14.2518 -5.31307C14.975 -5.2047 15.5974 -5.11144 16.0893 -5.04036C16.4323 -4.99079 16.7122 -4.95196 16.9186 -4.92631C17.0217 -4.91349 17.1069 -4.90392 17.1726 -4.89795Z" fill="white"/>
</g>
<defs>
<linearGradient id="paint0_linear_104_2186" x1="7.66807" y1="11.624" x2="30.1719" y2="-2.03822" gradientUnits="userSpaceOnUse">
<stop stop-color="#01EEF5"/>
<stop offset="0.188799" stop-color="#01EFF5"/>
<stop offset="1" stop-color="#4192EC"/>
</linearGradient>
<linearGradient id="paint1_linear_104_2186" x1="11.6453" y1="13.9291" x2="23.9404" y2="32.2923" gradientUnits="userSpaceOnUse">
<stop stop-color="#01F8F5"/>
<stop offset="0.353505" stop-color="#01CAF3"/>
<stop offset="1" stop-color="#006EF0"/>
</linearGradient>
</defs>
</svg>
