<svg width="1675" height="419" viewBox="0 0 1675 419" fill="none" xmlns="http://www.w3.org/2000/svg">
<g clip-path="url(#clip0_108_2)">
<path d="M744.925 32.9C752.742 32.9 758.05 36.6333 760.85 44.1L778.175 92.575L805.3 32.9H812.65C814.633 37.3333 818.308 45.5 823.675 57.4C829.042 69.1833 834.408 80.9083 839.775 92.575L857.1 44.1C859.9 36.6333 865.208 32.9 873.025 32.9L895.425 33.075L847.125 161.175H838.9L808.975 96.775L779.225 161.175H770.825L722.525 32.9H744.925ZM940.941 82.25H992.566V95.025C992.566 99.575 991.341 103.075 988.891 105.525C986.558 107.858 983.116 109.025 978.566 109.025H940.941V132.475H992.916C997.466 132.475 1000.91 133.7 1003.24 136.15C1005.69 138.483 1006.92 141.925 1006.92 146.475V161H908.916V32.9H1006.92V47.425C1006.92 51.975 1005.69 55.475 1003.24 57.925C1000.91 60.2583 997.466 61.425 992.916 61.425H940.941V82.25ZM1127.9 69.475C1127.9 75.425 1126.39 80.6167 1123.35 85.05C1120.32 89.3667 1116.53 92.3417 1111.98 93.975C1115.13 94.5583 1118.28 96.1917 1121.43 98.875C1124.7 101.442 1127.38 104.825 1129.48 109.025C1131.7 113.108 1132.8 117.6 1132.8 122.5C1132.8 136.267 1128.6 146.125 1120.2 152.075C1111.8 158.025 1101.07 161 1088 161H1030.25V32.9H1086.25C1099.32 32.9 1109.53 35.875 1116.88 41.825C1124.23 47.6583 1127.9 56.875 1127.9 69.475ZM1083.8 83.475C1087.65 83.475 1090.57 82.3083 1092.55 79.975C1094.54 77.6417 1095.53 75.0167 1095.53 72.1C1095.53 69.3 1094.54 66.85 1092.55 64.75C1090.69 62.5333 1087.71 61.425 1083.63 61.425H1062.45V83.475H1083.8ZM1087.48 132.475C1091.33 132.475 1094.48 131.192 1096.93 128.625C1099.38 126.058 1100.6 123.2 1100.6 120.05C1100.6 116.9 1099.38 114.1 1096.93 111.65C1094.48 109.083 1091.21 107.8 1087.13 107.8H1062.45V132.475H1087.48ZM1197.22 163.275C1181.82 163.275 1170.09 159.075 1162.04 150.675C1153.99 142.275 1148.51 133 1145.59 122.85L1160.47 119C1161.98 118.533 1163.56 118.3 1165.19 118.3C1167.76 118.3 1170.03 119.058 1172.02 120.575C1174 121.975 1176.1 124.192 1178.32 127.225C1181.93 131.892 1186.89 134.225 1193.19 134.225C1197.74 134.225 1201.3 133.058 1203.87 130.725C1206.43 128.392 1207.72 125.533 1207.72 122.15C1207.72 116.667 1205.62 113.05 1201.42 111.3C1197.33 109.55 1190.45 108.792 1180.77 109.025V99.4C1180.77 95.0833 1181.93 91.8167 1184.27 89.6C1186.6 87.3833 1190.16 85.925 1194.94 85.225C1199.49 84.4083 1202.76 82.95 1204.74 80.85C1206.73 78.75 1207.72 75.775 1207.72 71.925C1207.72 68.5417 1206.43 65.625 1203.87 63.175C1201.3 60.725 1197.74 59.5 1193.19 59.5C1187.24 59.5 1182.46 61.8917 1178.84 66.675C1176.63 69.825 1174.53 72.1583 1172.54 73.675C1170.68 75.075 1168.52 75.775 1166.07 75.775C1164.43 75.775 1162.86 75.5417 1161.34 75.075L1145.59 70.7C1148.51 60.6667 1153.76 51.45 1161.34 43.05C1168.93 34.5333 1179.54 30.275 1193.19 30.275C1204.04 30.275 1212.97 32.1417 1219.97 35.875C1226.97 39.6083 1232.04 44.3333 1235.19 50.05C1238.34 55.65 1239.92 61.425 1239.92 67.375C1239.92 75.425 1237.93 82.075 1233.97 87.325C1230 92.4583 1225.28 95.4917 1219.79 96.425C1223.29 97.0083 1226.56 98.6417 1229.59 101.325C1232.74 103.892 1235.25 107.275 1237.12 111.475C1238.98 115.675 1239.92 120.4 1239.92 125.65C1239.92 137.667 1236.13 146.942 1228.54 153.475C1220.96 160.008 1210.52 163.275 1197.22 163.275ZM787.975 256.9H795.85L862.35 385H838.2C834.35 385 831.083 384.183 828.4 382.55C825.717 380.917 823.5 378.35 821.75 374.85L818.25 367.85H765.4L762.075 374.675C760.325 378.292 758.108 380.917 755.425 382.55C752.858 384.183 749.592 385 745.625 385H721.475L787.975 256.9ZM806 341.95L791.825 311.85L777.65 341.95H806ZM952.881 356.475C957.431 356.475 960.873 357.7 963.206 360.15C965.656 362.483 966.881 365.925 966.881 370.475V385H870.631V256.9H889.006C893.556 256.9 896.998 258.125 899.331 260.575C901.781 262.908 903.006 266.35 903.006 270.9V356.475H952.881ZM1062.09 356.475C1066.64 356.475 1070.08 357.7 1072.41 360.15C1074.86 362.483 1076.09 365.925 1076.09 370.475V385H979.835V256.9H998.21C1002.76 256.9 1006.2 258.125 1008.54 260.575C1010.99 262.908 1012.21 266.35 1012.21 270.9V356.475H1062.09ZM1105.31 385C1100.76 385 1097.26 383.833 1094.81 381.5C1092.48 379.05 1091.31 375.55 1091.31 371V256.9H1109.69C1114.24 256.9 1117.68 258.125 1120.01 260.575C1122.46 262.908 1123.69 266.35 1123.69 270.9V385H1105.31ZM1198.3 256.9H1206.18L1272.68 385H1248.53C1244.68 385 1241.41 384.183 1238.73 382.55C1236.04 380.917 1233.83 378.35 1232.08 374.85L1228.58 367.85H1175.73L1172.4 374.675C1170.65 378.292 1168.44 380.917 1165.75 382.55C1163.19 384.183 1159.92 385 1155.95 385H1131.8L1198.3 256.9ZM1216.33 341.95L1202.15 311.85L1187.98 341.95H1216.33ZM1314.88 318.85V371C1314.88 375.55 1313.65 379.05 1311.2 381.5C1308.87 383.833 1305.43 385 1300.88 385H1282.68V256.9H1291.78L1364.58 324.1V270.9C1364.58 266.35 1365.74 262.908 1368.08 260.575C1370.53 258.125 1374.03 256.9 1378.58 256.9H1396.95V385H1388.03L1314.88 318.85ZM1543.88 350.525C1539.33 362.308 1532.1 371.408 1522.18 377.825C1512.27 384.125 1499.73 387.275 1484.56 387.275C1472.43 387.275 1461.23 384.3 1450.96 378.35C1440.69 372.4 1432.53 364.35 1426.46 354.2C1420.39 344.05 1417.36 333.025 1417.36 321.125C1417.36 309.225 1420.39 298.2 1426.46 288.05C1432.53 277.9 1440.69 269.85 1450.96 263.9C1461.23 257.95 1472.43 254.975 1484.56 254.975C1498.21 254.975 1510.17 258.242 1520.43 264.775C1530.7 271.308 1538.69 280.175 1544.41 291.375L1526.38 298.55C1523.93 299.483 1521.83 299.95 1520.08 299.95C1517.87 299.95 1515.77 299.425 1513.78 298.375C1511.8 297.208 1509.7 295.517 1507.48 293.3C1501.18 287.233 1493.54 284.2 1484.56 284.2C1478.14 284.2 1472.25 285.775 1466.88 288.925C1461.63 291.958 1457.43 296.275 1454.28 301.875C1451.25 307.475 1449.73 313.892 1449.73 321.125C1449.73 328.358 1451.25 334.775 1454.28 340.375C1457.43 345.975 1461.63 350.35 1466.88 353.5C1472.25 356.533 1478.14 358.05 1484.56 358.05C1493.66 358.05 1501.36 355.017 1507.66 348.95C1509.88 346.617 1511.92 344.925 1513.78 343.875C1515.77 342.708 1517.87 342.125 1520.08 342.125C1521.83 342.125 1523.93 342.592 1526.38 343.525L1543.88 350.525ZM1594.12 306.25H1645.74V319.025C1645.74 323.575 1644.52 327.075 1642.07 329.525C1639.73 331.858 1636.29 333.025 1631.74 333.025H1594.12V356.475H1646.09C1650.64 356.475 1654.08 357.7 1656.42 360.15C1658.87 362.483 1660.09 365.925 1660.09 370.475V385H1562.09V256.9H1660.09V271.425C1660.09 275.975 1658.87 279.475 1656.42 281.925C1654.08 284.258 1650.64 285.425 1646.09 285.425H1594.12V306.25Z" fill="white"/>
<mask id="mask0_108_2" style="mask-type:alpha" maskUnits="userSpaceOnUse" x="0" y="59" width="654" height="324">
<path fill-rule="evenodd" clip-rule="evenodd" d="M306.882 62.9907C302.71 65.1625 297.498 69.3138 295.299 72.2134C288.961 80.5692 247.368 166.309 247.368 171.018C247.368 175.469 255.119 189.101 268.898 208.881C280.028 224.86 282.151 224.698 290.219 207.264C310.656 163.104 317.304 150.768 322.321 147.709C325.115 146.006 328.703 144.609 330.295 144.605C335.045 144.596 345.29 150.571 349.883 156.032C352.247 158.841 367.513 188.164 383.81 221.194C452.17 359.749 451.21 357.892 458.227 365.113C467.565 374.725 481.515 381.165 494.743 381.97C508.843 382.83 520.951 378.26 532.47 367.731C541.603 359.382 540.074 362.152 602.085 241.628C653.551 141.602 654 140.627 654 129.236C654 120.102 653.465 118.264 649.717 114.513C643.423 108.219 632.275 107.996 567.5 112.872C536.82 115.181 505.899 117.489 498.785 118.002C473.732 119.806 456.864 126.204 445.08 138.37C436.189 147.549 425.225 163.942 425.23 168.048C425.234 169.827 428.771 177.468 433.091 185.028C443.982 204.083 446.332 204.236 456.605 186.551C465.214 171.732 471.645 164.708 479.68 161.351C482.687 160.095 494.036 158.374 504.901 157.53C529.978 155.578 582.134 155.51 585.157 157.423C587.542 158.933 585.718 163.02 566.706 198.774C562.921 205.889 554.9 221.171 548.879 232.734C531.297 266.497 517.375 292.074 513.996 296.82C512.269 299.246 508.358 302.055 505.304 303.063C493.861 306.84 488.54 300.682 466.206 257.8C456.708 239.566 446.045 219.19 442.509 212.52C428.095 185.335 388.187 104.251 379.891 85.2978C375.883 76.1382 365.961 65.4779 358.121 61.9072C353.041 59.5931 347.665 58.9688 333.06 59.0012C316.536 59.0351 313.622 59.4799 306.882 62.9907ZM12.3817 109.368C5.08331 111.319 0.00808933 118.356 5.19264e-06 126.534C-0.00646212 132.386 6.02915 148.732 12.9411 161.579C15.3324 166.026 26.9638 188.222 38.7861 210.902C50.6083 233.583 64.8057 260.509 70.3352 270.737C75.8648 280.966 84.6102 297.339 89.7711 307.123C105.375 336.709 122.674 362.967 131.421 370.344C140.447 377.958 146.404 379.559 162.485 378.699C190.04 377.222 201.077 368.231 221.355 330.74C236.336 303.042 240.901 293.03 240.901 287.868C240.901 283.802 218.34 244.589 212.511 238.523C207.709 233.528 206.398 234.569 196.881 250.94C192.878 257.826 185.523 270.477 180.538 279.054C169.254 298.468 163.321 304.697 156.111 304.697C145.71 304.697 143.854 302.139 117.973 252.14C110.607 237.909 102.628 222.627 100.242 218.18C87.0823 193.655 69.5171 159.431 69.5171 158.316C69.5171 157.607 92.109 157.459 119.723 157.986C169.864 158.943 169.937 158.95 176.984 163.08C180.866 165.355 186.855 170.511 190.296 174.536C196.495 181.789 225.756 229.902 256.18 282.866C264.865 297.986 273.347 312.329 275.03 314.74C276.712 317.15 278.088 319.488 278.088 319.938C278.088 322.299 293.936 346.807 298.945 352.192C309.601 363.648 324.006 367.446 335.715 361.89C342.399 358.717 350.462 350.45 359.298 337.712C372.085 319.278 399.35 275.608 399.329 273.595C399.3 270.878 386.9 248.587 384.64 247.19C381.925 245.513 379.314 248.843 355.767 284.012C343.53 302.288 332.035 317.746 329.715 319.043C320.418 324.241 317.116 320.84 300.381 288.828C291.339 271.533 265.168 225.192 244.042 189.071C239.362 181.066 231.827 168.051 227.302 160.15C217.143 142.411 208.053 132.04 197.746 126.43C183.676 118.77 187.049 119.177 80.2981 112.285C51.9907 110.457 26.5257 108.679 23.7092 108.334C20.8926 107.99 15.7948 108.454 12.3817 109.368Z" fill="url(#paint0_linear_108_2)"/>
</mask>
<g mask="url(#mask0_108_2)">
<path d="M238.131 162.599C238.294 151.47 238.523 128.524 238.131 125.775C271.518 86.9865 340.65 9.50815 350.077 9.90095C361.86 10.3919 697.698 -27.4144 733.541 -9.2477C769.383 8.91897 772.82 179.784 767.91 221.518C763 263.252 644.671 391.892 599.5 411.532C563.363 427.243 491.482 404.985 460.059 391.892L402.122 271.599L382.482 238.703H345.658L272.5 227.41L238.131 162.599Z" fill="url(#paint1_linear_108_2)"/>
<path fill-rule="evenodd" clip-rule="evenodd" d="M723.536 -12.5056C727.981 -11.7823 731.453 -10.8561 733.763 -9.68563C738.373 -7.34893 742.407 -2.59017 745.941 3.93836C749.48 10.4758 752.547 18.8426 755.196 28.4745C760.492 47.7396 764.132 72.1373 766.496 97.2514C771.224 147.475 770.858 200.662 768.398 221.575C767.774 226.877 765.358 233.512 761.555 241.08C757.749 248.656 752.534 257.201 746.282 266.33C733.777 284.589 717.099 305.212 699.168 325.139C681.236 345.066 662.044 364.305 644.505 379.793C626.98 395.27 611.065 407.039 599.696 411.982C590.574 415.948 579.23 417.506 566.883 417.423C554.531 417.341 541.143 415.618 527.916 412.995C501.463 407.751 475.606 398.902 459.87 392.345L459.697 392.273L401.689 271.832L382.203 239.194H345.62L272.182 227.858L237.638 162.718L237.64 162.592C237.722 157.029 237.82 148.512 237.848 141.043C237.863 137.308 237.86 133.837 237.828 131.129C237.797 128.402 237.737 126.492 237.645 125.844L237.613 125.624L237.759 125.455C254.455 106.057 280.089 76.9851 302.73 52.8094C314.05 40.7225 324.627 29.8532 332.967 22.0279C337.136 18.1163 340.755 14.9567 343.633 12.7843C345.072 11.6987 346.337 10.8511 347.4 10.279C348.443 9.71821 349.366 9.37995 350.097 9.41041C350.797 9.43955 352.763 9.32439 355.893 9.07778C359.005 8.83254 363.232 8.46069 368.422 7.98509C375.863 7.30322 385.279 6.4085 396.222 5.36865C400.545 4.9579 405.106 4.52451 409.877 4.07264C443.58 0.881155 487.788 -3.23119 532.748 -6.79119C577.707 -10.3511 623.425 -13.3592 660.147 -14.3415C678.508 -14.8327 694.628 -14.8177 707.284 -14.1108C713.611 -13.7574 719.081 -13.2306 723.536 -12.5056ZM355.97 10.0567C352.868 10.3011 350.83 10.4238 350.056 10.3915C349.609 10.3729 348.887 10.5939 347.865 11.1438C346.864 11.6824 345.644 12.497 344.225 13.5681C341.388 15.7092 337.799 18.8411 333.639 22.744C325.322 30.5475 314.762 41.3985 303.447 53.4806C280.882 77.5751 255.338 106.541 238.644 125.932C238.731 126.796 238.782 128.664 238.81 131.118C238.842 133.833 238.845 137.31 238.83 141.047C238.802 148.464 238.705 156.913 238.623 162.48L272.818 226.962L345.695 238.212H382.761L402.554 271.366L460.42 391.51C476.123 398.04 501.826 406.821 528.107 412.032C541.296 414.647 554.618 416.36 566.889 416.442C579.165 416.523 590.357 414.971 599.304 411.081C610.52 406.205 626.336 394.528 643.855 379.057C661.361 363.598 680.527 344.386 698.438 324.482C716.349 304.577 732.998 283.988 745.472 265.775C751.709 256.668 756.897 248.163 760.678 240.639C764.463 233.107 766.819 226.593 767.422 221.461C769.872 200.64 770.242 147.527 765.519 97.3434C763.157 72.2536 759.524 47.9204 754.249 28.7348C751.611 19.1413 748.568 10.8528 745.078 4.40585C741.583 -2.05003 737.669 -6.60476 733.319 -8.80973C731.148 -9.91011 727.796 -10.8174 723.378 -11.5364C718.97 -12.2537 713.538 -12.778 707.229 -13.1303C694.612 -13.835 678.523 -13.8507 660.174 -13.3599C623.477 -12.3783 577.779 -9.37176 532.825 -5.81227C487.873 -2.2529 443.672 1.85885 409.97 5.05025C405.199 5.50201 400.639 5.93535 396.317 6.34607C385.372 7.386 375.954 8.28095 368.511 8.96297C363.321 9.43866 359.089 9.81097 355.97 10.0567Z" fill="url(#paint2_linear_108_2)"/>
</g>
<mask id="mask1_108_2" style="mask-type:alpha" maskUnits="userSpaceOnUse" x="0" y="59" width="654" height="324">
<path fill-rule="evenodd" clip-rule="evenodd" d="M306.882 62.9907C302.71 65.1625 297.498 69.3138 295.299 72.2134C288.961 80.5692 247.368 166.309 247.368 171.018C247.368 175.469 255.119 189.101 268.898 208.881C280.028 224.86 282.151 224.698 290.219 207.264C310.656 163.104 317.304 150.768 322.321 147.709C325.115 146.006 328.703 144.609 330.295 144.605C335.045 144.596 345.29 150.571 349.883 156.032C352.247 158.841 367.513 188.164 383.81 221.194C452.17 359.749 451.21 357.892 458.227 365.113C467.565 374.725 481.515 381.165 494.743 381.97C508.843 382.83 520.951 378.26 532.47 367.731C541.603 359.382 540.074 362.152 602.085 241.628C653.551 141.602 654 140.627 654 129.236C654 120.102 653.465 118.264 649.717 114.513C643.423 108.219 632.275 107.996 567.5 112.872C536.82 115.181 505.899 117.489 498.785 118.002C473.732 119.806 456.864 126.204 445.08 138.37C436.189 147.549 425.225 163.942 425.23 168.048C425.234 169.827 428.771 177.468 433.091 185.028C443.982 204.083 446.332 204.236 456.605 186.551C465.214 171.732 471.645 164.708 479.68 161.351C482.687 160.095 494.036 158.374 504.901 157.53C529.978 155.578 582.134 155.51 585.157 157.423C587.542 158.933 585.718 163.02 566.706 198.774C562.921 205.889 554.9 221.171 548.879 232.734C531.297 266.497 517.375 292.074 513.996 296.82C512.269 299.246 508.358 302.055 505.304 303.063C493.861 306.84 488.54 300.682 466.206 257.8C456.708 239.566 446.045 219.19 442.509 212.52C428.095 185.335 388.187 104.251 379.891 85.2978C375.883 76.1382 365.961 65.4779 358.121 61.9072C353.041 59.5931 347.665 58.9688 333.06 59.0012C316.536 59.0351 313.622 59.4799 306.882 62.9907ZM12.3817 109.368C5.08331 111.319 0.00808933 118.356 5.19264e-06 126.534C-0.00646212 132.386 6.02915 148.732 12.9411 161.579C15.3324 166.026 26.9638 188.222 38.7861 210.902C50.6083 233.583 64.8057 260.509 70.3352 270.737C75.8648 280.966 84.6102 297.339 89.7711 307.123C105.375 336.709 122.674 362.967 131.421 370.344C140.447 377.958 146.404 379.559 162.485 378.699C190.04 377.222 201.077 368.231 221.355 330.74C236.336 303.042 240.901 293.03 240.901 287.868C240.901 283.802 218.34 244.589 212.511 238.523C207.709 233.528 206.398 234.569 196.881 250.94C192.878 257.826 185.523 270.477 180.538 279.054C169.254 298.468 163.321 304.697 156.111 304.697C145.71 304.697 143.854 302.139 117.973 252.14C110.607 237.909 102.628 222.627 100.242 218.18C87.0823 193.655 69.5171 159.431 69.5171 158.316C69.5171 157.607 92.109 157.459 119.723 157.986C169.864 158.943 169.937 158.95 176.984 163.08C180.866 165.355 186.855 170.511 190.296 174.536C196.495 181.789 225.756 229.902 256.18 282.866C264.865 297.986 273.347 312.329 275.03 314.74C276.712 317.15 278.088 319.488 278.088 319.938C278.088 322.299 293.936 346.807 298.945 352.192C309.601 363.648 324.006 367.446 335.715 361.89C342.399 358.717 350.462 350.45 359.298 337.712C372.085 319.278 399.35 275.608 399.329 273.595C399.3 270.878 386.9 248.587 384.64 247.19C381.925 245.513 379.314 248.843 355.767 284.012C343.53 302.288 332.035 317.746 329.715 319.043C320.418 324.241 317.116 320.84 300.381 288.828C291.339 271.533 265.168 225.192 244.042 189.071C239.362 181.066 231.827 168.051 227.302 160.15C217.143 142.411 208.053 132.04 197.746 126.43C183.676 118.77 187.049 119.177 80.2981 112.285C51.9907 110.457 26.5257 108.679 23.7092 108.334C20.8926 107.99 15.7948 108.454 12.3817 109.368Z" fill="url(#paint3_linear_108_2)"/>
</mask>
<g mask="url(#mask1_108_2)">
<path d="M237.64 162.528C237.536 151.375 237.39 128.379 237.64 125.623C216.422 86.7494 172.489 9.10075 166.498 9.49441C159.009 9.98648 -54.416 -27.9029 -77.1938 -9.69632C-99.9717 8.51027 -102.156 179.751 -99.0356 221.577C-95.9154 263.402 -20.7173 392.325 7.98901 412.008C30.9541 427.754 76.6346 405.447 96.6042 392.325L369.225 448.356L406.541 276.018L384.446 231.829L295.086 259.815L237.64 162.528Z" fill="url(#paint4_linear_108_2)"/>
<path fill-rule="evenodd" clip-rule="evenodd" d="M-70.9077 -12.9513C-73.7505 -12.2217 -75.9971 -11.2814 -77.5003 -10.0798C-80.4656 -7.70961 -83.0276 -2.92246 -85.2644 3.59356C-87.5098 10.1347 -89.4567 18.509 -91.1384 28.1549C-94.5022 47.449 -96.8145 71.889 -98.3166 97.0536C-101.321 147.38 -101.088 200.671 -99.5252 221.613C-98.7384 232.16 -93.4219 248.127 -85.4838 266.404C-77.5379 284.7 -66.9398 305.368 -55.5445 325.339C-44.1491 345.31 -31.9515 364.593 -20.804 380.117C-9.67173 395.621 0.455023 407.437 7.71143 412.413C13.5621 416.424 20.8329 417.994 28.7205 417.911C36.6085 417.829 45.1454 416.093 53.5665 413.46C70.3126 408.224 86.676 399.414 96.704 392.847L369.602 448.935L407.057 275.953L384.698 231.235L295.31 259.23L238.129 162.392C238.078 156.814 238.016 148.353 237.998 140.925C237.98 133.419 238.007 127.015 238.129 125.667L238.142 125.519L238.071 125.388C227.46 105.948 211.169 76.8119 196.781 52.5828C189.587 40.4694 182.865 29.5756 177.564 21.7319C174.915 17.8118 172.613 14.6423 170.78 12.461C169.865 11.372 169.056 10.515 168.369 9.93226C168.025 9.64111 167.7 9.40749 167.398 9.24812C167.102 9.09233 166.782 8.98369 166.466 9.0045C166.276 9.01699 165.878 8.99913 165.249 8.94203C164.633 8.88603 163.826 8.79547 162.838 8.67274C160.863 8.42733 158.179 8.05501 154.881 7.57841C150.153 6.89517 144.171 5.99867 137.217 4.95659C134.469 4.54491 131.571 4.11051 128.537 3.65757C107.119 0.45901 79.0223 -3.6628 50.4464 -7.23108C21.8728 -10.7991 -7.19073 -13.815 -30.5399 -14.8C-42.2132 -15.2924 -52.472 -15.2779 -60.5331 -14.5679C-64.5635 -14.2129 -68.0563 -13.683 -70.9077 -12.9513ZM165.16 9.91998C165.78 9.97629 166.252 10.0026 166.53 9.98437C166.588 9.98057 166.717 9.99976 166.94 10.1171C167.156 10.2308 167.421 10.4156 167.733 10.6811C168.359 11.2115 169.128 12.0203 170.029 13.0927C171.828 15.2344 174.107 18.3703 176.751 22.2818C182.035 30.1013 188.746 40.9754 195.937 53.0842C210.285 77.2462 226.53 106.296 237.139 125.73C237.022 127.403 236.998 133.698 237.016 140.927C237.034 148.417 237.097 156.955 237.149 162.533L237.15 162.664L294.861 260.4L384.194 232.422L406.024 276.083L368.848 447.777L96.5043 391.803L96.3346 391.914C86.3775 398.457 70.0064 407.291 53.2734 412.523C44.9075 415.139 36.4703 416.848 28.7102 416.929C20.9498 417.011 13.8986 415.464 8.26674 411.603C1.16999 406.737 -8.8679 395.057 -20.0064 379.544C-31.1297 364.053 -43.3091 344.801 -54.6916 324.852C-66.074 304.904 -76.6547 284.269 -84.5831 266.013C-92.5193 247.74 -97.7726 231.906 -98.546 221.54C-100.104 200.657 -100.339 147.414 -97.3364 97.1121C-95.8352 71.9626 -93.5256 47.5646 -90.171 28.3236C-88.4936 18.7019 -86.5573 10.3842 -84.3356 3.91239C-82.1054 -2.58452 -79.6164 -7.13133 -76.8872 -9.31276C-75.5432 -10.387 -73.4532 -11.2842 -70.6635 -12.0001C-67.8824 -12.7139 -64.447 -13.2374 -60.447 -13.5897C-52.4473 -14.2943 -42.2368 -14.3106 -30.5813 -13.8189C-7.27299 -12.8356 21.7587 -9.8237 50.3247 -6.25666C78.8884 -2.68992 106.976 1.43043 128.392 4.62878C131.424 5.08148 134.322 5.51575 137.069 5.92737C144.024 6.96961 150.01 7.86668 154.741 8.5503C158.04 9.02708 160.732 9.40056 162.717 9.64723C163.709 9.77052 164.528 9.86257 165.16 9.91998Z" fill="url(#paint5_linear_108_2)"/>
</g>
</g>
<defs>
<linearGradient id="paint0_linear_108_2" x1="73.7488" y1="168.83" x2="290.188" y2="37.434" gradientUnits="userSpaceOnUse">
<stop stop-color="#01EEF5"/>
<stop offset="0.188799" stop-color="#01EFF5"/>
<stop offset="1" stop-color="#4192EC"/>
</linearGradient>
<linearGradient id="paint1_linear_108_2" x1="298.071" y1="132.374" x2="509.865" y2="54.0629" gradientUnits="userSpaceOnUse">
<stop stop-color="#01EEF5"/>
<stop offset="0.188799" stop-color="#01EFF5"/>
<stop offset="1" stop-color="#4192EC"/>
</linearGradient>
<linearGradient id="paint2_linear_108_2" x1="297.668" y1="132.217" x2="509.882" y2="53.7798" gradientUnits="userSpaceOnUse">
<stop stop-color="#01EEF5"/>
<stop offset="0.188799" stop-color="#01EFF5"/>
<stop offset="1" stop-color="#4192EC"/>
</linearGradient>
<linearGradient id="paint3_linear_108_2" x1="112" y1="191" x2="230.258" y2="367.614" gradientUnits="userSpaceOnUse">
<stop stop-color="#01F8F5"/>
<stop offset="0.353505" stop-color="#01CAF3"/>
<stop offset="1" stop-color="#006EF0"/>
</linearGradient>
<linearGradient id="paint4_linear_108_2" x1="319.766" y1="174.525" x2="140.586" y2="319.192" gradientUnits="userSpaceOnUse">
<stop stop-color="#01F8F5"/>
<stop offset="0.353505" stop-color="#01CAF3"/>
<stop offset="1" stop-color="#006EF0"/>
</linearGradient>
<linearGradient id="paint5_linear_108_2" x1="320.11" y1="174.471" x2="140.529" y2="319.416" gradientUnits="userSpaceOnUse">
<stop stop-color="#01F8F5"/>
<stop offset="0.353505" stop-color="#01CAF3"/>
<stop offset="1" stop-color="#006EF0"/>
</linearGradient>
<clipPath id="clip0_108_2">
<rect width="1675" height="419" fill="white"/>
</clipPath>
</defs>
</svg>
