<svg width="2000" height="1000" viewBox="0 0 2000 1000" fill="none" xmlns="http://www.w3.org/2000/svg">
<path d="M906.925 323.9C914.742 323.9 920.05 327.633 922.85 335.1L940.175 383.575L967.3 323.9H974.65C976.633 328.333 980.308 336.5 985.675 348.4C991.042 360.183 996.408 371.908 1001.78 383.575L1019.1 335.1C1021.9 327.633 1027.21 323.9 1035.03 323.9L1057.43 324.075L1009.13 452.175H1000.9L970.975 387.775L941.225 452.175H932.825L884.525 323.9H906.925ZM1102.94 373.25H1154.57V386.025C1154.57 390.575 1153.34 394.075 1150.89 396.525C1148.56 398.858 1145.12 400.025 1140.57 400.025H1102.94V423.475H1154.92C1159.47 423.475 1162.91 424.7 1165.24 427.15C1167.69 429.483 1168.92 432.925 1168.92 437.475V452H1070.92V323.9H1168.92V338.425C1168.92 342.975 1167.69 346.475 1165.24 348.925C1162.91 351.258 1159.47 352.425 1154.92 352.425H1102.94V373.25ZM1289.9 360.475C1289.9 366.425 1288.39 371.617 1285.35 376.05C1282.32 380.367 1278.53 383.342 1273.98 384.975C1277.13 385.558 1280.28 387.192 1283.43 389.875C1286.7 392.442 1289.38 395.825 1291.48 400.025C1293.7 404.108 1294.8 408.6 1294.8 413.5C1294.8 427.267 1290.6 437.125 1282.2 443.075C1273.8 449.025 1263.07 452 1250 452H1192.25V323.9H1248.25C1261.32 323.9 1271.53 326.875 1278.88 332.825C1286.23 338.658 1289.9 347.875 1289.9 360.475ZM1245.8 374.475C1249.65 374.475 1252.57 373.308 1254.55 370.975C1256.54 368.642 1257.53 366.017 1257.53 363.1C1257.53 360.3 1256.54 357.85 1254.55 355.75C1252.69 353.533 1249.71 352.425 1245.63 352.425H1224.45V374.475H1245.8ZM1249.48 423.475C1253.33 423.475 1256.48 422.192 1258.93 419.625C1261.38 417.058 1262.6 414.2 1262.6 411.05C1262.6 407.9 1261.38 405.1 1258.93 402.65C1256.48 400.083 1253.21 398.8 1249.13 398.8H1224.45V423.475H1249.48ZM1359.22 454.275C1343.82 454.275 1332.09 450.075 1324.04 441.675C1315.99 433.275 1310.51 424 1307.59 413.85L1322.47 410C1323.98 409.533 1325.56 409.3 1327.19 409.3C1329.76 409.3 1332.03 410.058 1334.02 411.575C1336 412.975 1338.1 415.192 1340.32 418.225C1343.93 422.892 1348.89 425.225 1355.19 425.225C1359.74 425.225 1363.3 424.058 1365.87 421.725C1368.43 419.392 1369.72 416.533 1369.72 413.15C1369.72 407.667 1367.62 404.05 1363.42 402.3C1359.33 400.55 1352.45 399.792 1342.77 400.025V390.4C1342.77 386.083 1343.93 382.817 1346.27 380.6C1348.6 378.383 1352.16 376.925 1356.94 376.225C1361.49 375.408 1364.76 373.95 1366.74 371.85C1368.73 369.75 1369.72 366.775 1369.72 362.925C1369.72 359.542 1368.43 356.625 1365.87 354.175C1363.3 351.725 1359.74 350.5 1355.19 350.5C1349.24 350.5 1344.46 352.892 1340.84 357.675C1338.63 360.825 1336.53 363.158 1334.54 364.675C1332.68 366.075 1330.52 366.775 1328.07 366.775C1326.43 366.775 1324.86 366.542 1323.34 366.075L1307.59 361.7C1310.51 351.667 1315.76 342.45 1323.34 334.05C1330.93 325.533 1341.54 321.275 1355.19 321.275C1366.04 321.275 1374.97 323.142 1381.97 326.875C1388.97 330.608 1394.04 335.333 1397.19 341.05C1400.34 346.65 1401.92 352.425 1401.92 358.375C1401.92 366.425 1399.93 373.075 1395.97 378.325C1392 383.458 1387.28 386.492 1381.79 387.425C1385.29 388.008 1388.56 389.642 1391.59 392.325C1394.74 394.892 1397.25 398.275 1399.12 402.475C1400.98 406.675 1401.92 411.4 1401.92 416.65C1401.92 428.667 1398.13 437.942 1390.54 444.475C1382.96 451.008 1372.52 454.275 1359.22 454.275ZM949.975 547.9H957.85L1024.35 676H1000.2C996.35 676 993.083 675.183 990.4 673.55C987.717 671.917 985.5 669.35 983.75 665.85L980.25 658.85H927.4L924.075 665.675C922.325 669.292 920.108 671.917 917.425 673.55C914.858 675.183 911.592 676 907.625 676H883.475L949.975 547.9ZM968 632.95L953.825 602.85L939.65 632.95H968ZM1114.88 647.475C1119.43 647.475 1122.87 648.7 1125.21 651.15C1127.66 653.483 1128.88 656.925 1128.88 661.475V676H1032.63V547.9H1051.01C1055.56 547.9 1059 549.125 1061.33 551.575C1063.78 553.908 1065.01 557.35 1065.01 561.9V647.475H1114.88ZM1224.09 647.475C1228.64 647.475 1232.08 648.7 1234.41 651.15C1236.86 653.483 1238.09 656.925 1238.09 661.475V676H1141.84V547.9H1160.21C1164.76 547.9 1168.2 549.125 1170.54 551.575C1172.99 553.908 1174.21 557.35 1174.21 561.9V647.475H1224.09ZM1267.31 676C1262.76 676 1259.26 674.833 1256.81 672.5C1254.48 670.05 1253.31 666.55 1253.31 662V547.9H1271.69C1276.24 547.9 1279.68 549.125 1282.01 551.575C1284.46 553.908 1285.69 557.35 1285.69 561.9V676H1267.31ZM1360.3 547.9H1368.18L1434.68 676H1410.53C1406.68 676 1403.41 675.183 1400.73 673.55C1398.04 671.917 1395.83 669.35 1394.08 665.85L1390.58 658.85H1337.73L1334.4 665.675C1332.65 669.292 1330.44 671.917 1327.75 673.55C1325.19 675.183 1321.92 676 1317.95 676H1293.8L1360.3 547.9ZM1378.33 632.95L1364.15 602.85L1349.98 632.95H1378.33ZM1476.88 609.85V662C1476.88 666.55 1475.65 670.05 1473.2 672.5C1470.87 674.833 1467.43 676 1462.88 676H1444.68V547.9H1453.78L1526.58 615.1V561.9C1526.58 557.35 1527.74 553.908 1530.08 551.575C1532.53 549.125 1536.03 547.9 1540.58 547.9H1558.95V676H1550.03L1476.88 609.85ZM1705.88 641.525C1701.33 653.308 1694.1 662.408 1684.18 668.825C1674.27 675.125 1661.73 678.275 1646.56 678.275C1634.43 678.275 1623.23 675.3 1612.96 669.35C1602.69 663.4 1594.53 655.35 1588.46 645.2C1582.39 635.05 1579.36 624.025 1579.36 612.125C1579.36 600.225 1582.39 589.2 1588.46 579.05C1594.53 568.9 1602.69 560.85 1612.96 554.9C1623.23 548.95 1634.43 545.975 1646.56 545.975C1660.21 545.975 1672.17 549.242 1682.43 555.775C1692.7 562.308 1700.69 571.175 1706.41 582.375L1688.38 589.55C1685.93 590.483 1683.83 590.95 1682.08 590.95C1679.87 590.95 1677.77 590.425 1675.78 589.375C1673.8 588.208 1671.7 586.517 1669.48 584.3C1663.18 578.233 1655.54 575.2 1646.56 575.2C1640.14 575.2 1634.25 576.775 1628.88 579.925C1623.63 582.958 1619.43 587.275 1616.28 592.875C1613.25 598.475 1611.73 604.892 1611.73 612.125C1611.73 619.358 1613.25 625.775 1616.28 631.375C1619.43 636.975 1623.63 641.35 1628.88 644.5C1634.25 647.533 1640.14 649.05 1646.56 649.05C1655.66 649.05 1663.36 646.017 1669.66 639.95C1671.88 637.617 1673.92 635.925 1675.78 634.875C1677.77 633.708 1679.87 633.125 1682.08 633.125C1683.83 633.125 1685.93 633.592 1688.38 634.525L1705.88 641.525ZM1756.12 597.25H1807.74V610.025C1807.74 614.575 1806.52 618.075 1804.07 620.525C1801.73 622.858 1798.29 624.025 1793.74 624.025H1756.12V647.475H1808.09C1812.64 647.475 1816.08 648.7 1818.42 651.15C1820.87 653.483 1822.09 656.925 1822.09 661.475V676H1724.09V547.9H1822.09V562.425C1822.09 566.975 1820.87 570.475 1818.42 572.925C1816.08 575.258 1812.64 576.425 1808.09 576.425H1756.12V597.25Z" fill="white"/>
<mask id="mask0_1_2" style="mask-type:alpha" maskUnits="userSpaceOnUse" x="162" y="350" width="654" height="324">
<path fill-rule="evenodd" clip-rule="evenodd" d="M468.882 353.991C464.71 356.163 459.498 360.314 457.299 363.213C450.961 371.569 409.368 457.309 409.368 462.018C409.368 466.469 417.119 480.101 430.898 499.881C442.028 515.86 444.151 515.698 452.219 498.264C472.656 454.104 479.304 441.768 484.321 438.709C487.115 437.006 490.703 435.609 492.295 435.605C497.045 435.596 507.29 441.571 511.883 447.032C514.247 449.841 529.513 479.164 545.81 512.194C614.17 650.749 613.21 648.892 620.227 656.113C629.565 665.725 643.515 672.165 656.743 672.97C670.843 673.83 682.951 669.26 694.47 658.731C703.603 650.382 702.074 653.152 764.085 532.628C815.551 432.602 816 431.627 816 420.236C816 411.102 815.465 409.264 811.717 405.513C805.423 399.219 794.275 398.996 729.5 403.872C698.82 406.181 667.899 408.489 660.785 409.002C635.732 410.806 618.864 417.204 607.08 429.37C598.189 438.549 587.225 454.942 587.23 459.048C587.234 460.827 590.771 468.468 595.091 476.028C605.982 495.083 608.332 495.236 618.605 477.551C627.214 462.732 633.645 455.708 641.68 452.351C644.688 451.095 656.036 449.374 666.901 448.53C691.978 446.578 744.134 446.51 747.157 448.423C749.542 449.933 747.718 454.02 728.706 489.774C724.921 496.889 716.9 512.171 710.879 523.734C693.297 557.497 679.375 583.074 675.996 587.82C674.269 590.246 670.358 593.055 667.304 594.063C655.861 597.84 650.54 591.682 628.206 548.8C618.708 530.566 608.045 510.19 604.509 503.52C590.095 476.335 550.187 395.251 541.891 376.298C537.883 367.138 527.961 356.478 520.121 352.907C515.041 350.593 509.665 349.969 495.06 350.001C478.536 350.035 475.622 350.48 468.882 353.991ZM174.382 400.368C167.083 402.319 162.008 409.356 162 417.534C161.994 423.386 168.029 439.732 174.941 452.579C177.332 457.026 188.964 479.222 200.786 501.902C212.608 524.583 226.806 551.509 232.335 561.737C237.865 571.966 246.61 588.339 251.771 598.123C267.375 627.709 284.674 653.967 293.421 661.344C302.447 668.958 308.404 670.559 324.485 669.699C352.04 668.222 363.077 659.231 383.355 621.74C398.336 594.042 402.901 584.03 402.901 578.868C402.901 574.802 380.34 535.589 374.511 529.523C369.709 524.528 368.398 525.569 358.881 541.94C354.878 548.826 347.523 561.477 342.538 570.054C331.254 589.468 325.321 595.697 318.111 595.697C307.71 595.697 305.854 593.139 279.973 543.14C272.607 528.909 264.628 513.627 262.242 509.18C249.082 484.655 231.517 450.431 231.517 449.316C231.517 448.607 254.109 448.459 281.723 448.986C331.864 449.943 331.937 449.95 338.984 454.08C342.866 456.355 348.855 461.511 352.296 465.536C358.495 472.789 387.756 520.902 418.18 573.866C426.865 588.986 435.347 603.329 437.03 605.74C438.712 608.15 440.088 610.488 440.088 610.938C440.088 613.299 455.936 637.807 460.945 643.192C471.601 654.648 486.006 658.446 497.715 652.89C504.399 649.717 512.462 641.45 521.298 628.712C534.085 610.278 561.35 566.608 561.329 564.595C561.3 561.878 548.9 539.587 546.64 538.19C543.925 536.513 541.314 539.842 517.767 575.012C505.53 593.288 494.035 608.746 491.715 610.043C482.418 615.241 479.116 611.84 462.381 579.828C453.339 562.533 427.168 516.192 406.042 480.071C401.362 472.066 393.827 459.051 389.302 451.15C379.143 433.411 370.053 423.04 359.746 417.43C345.676 409.77 349.049 410.177 242.298 403.285C213.991 401.457 188.526 399.679 185.709 399.334C182.893 398.99 177.795 399.454 174.382 400.368Z" fill="url(#paint0_linear_1_2)"/>
</mask>
<g mask="url(#mask0_1_2)">
<path d="M400.131 453.599C400.294 442.47 400.523 419.524 400.131 416.775C433.518 377.986 502.65 300.508 512.077 300.901C523.86 301.392 859.698 263.586 895.541 281.752C931.383 299.919 934.82 470.784 929.91 512.518C925 554.252 806.671 682.892 761.5 702.532C725.363 718.243 653.482 695.985 622.059 682.892L564.122 562.599L544.482 529.703H507.658L434.5 518.41L400.131 453.599Z" fill="url(#paint1_linear_1_2)"/>
<path fill-rule="evenodd" clip-rule="evenodd" d="M885.536 278.494C889.981 279.218 893.453 280.144 895.763 281.314C900.373 283.651 904.407 288.41 907.941 294.938C911.48 301.476 914.547 309.843 917.196 319.474C922.492 338.74 926.132 363.137 928.496 388.251C933.224 438.475 932.858 491.662 930.398 512.575C929.774 517.877 927.358 524.512 923.555 532.08C919.749 539.656 914.534 548.201 908.282 557.33C895.777 575.588 879.099 596.212 861.168 616.139C843.236 636.066 824.044 655.305 806.505 670.793C788.98 686.27 773.065 698.039 761.696 702.982C752.574 706.948 741.23 708.505 728.883 708.423C716.531 708.341 703.143 706.618 689.916 703.995C663.463 698.75 637.606 689.902 621.87 683.345L621.697 683.273L563.689 562.832L544.203 530.194H507.62L434.182 518.858L399.638 453.718L399.64 453.592C399.722 448.028 399.82 439.512 399.848 432.043C399.863 428.308 399.86 424.837 399.828 422.129C399.797 419.402 399.737 417.492 399.645 416.844L399.613 416.623L399.759 416.454C416.455 397.057 442.089 367.985 464.73 343.809C476.05 331.722 486.627 320.853 494.967 313.028C499.136 309.116 502.755 305.957 505.633 303.784C507.072 302.699 508.337 301.851 509.4 301.279C510.443 300.718 511.366 300.38 512.097 300.41C512.797 300.439 514.763 300.324 517.893 300.078C521.005 299.832 525.232 299.461 530.422 298.985C537.863 298.303 547.279 297.408 558.222 296.369C562.545 295.958 567.106 295.524 571.878 295.073C605.58 291.881 649.788 287.769 694.748 284.209C739.707 280.649 785.425 277.641 822.147 276.658C840.508 276.167 856.628 276.182 869.284 276.889C875.611 277.243 881.081 277.769 885.536 278.494ZM517.97 301.057C514.868 301.301 512.83 301.424 512.056 301.391C511.609 301.373 510.887 301.594 509.865 302.144C508.864 302.682 507.644 303.497 506.225 304.568C503.388 306.709 499.799 309.841 495.639 313.744C487.322 321.547 476.762 332.398 465.447 344.481C442.882 368.575 417.338 397.541 400.644 416.931C400.731 417.796 400.782 419.664 400.81 422.118C400.842 424.833 400.845 428.31 400.83 432.046C400.802 439.464 400.705 447.913 400.623 453.48L434.818 517.962L507.695 529.212H544.761L564.554 562.366L622.42 682.51C638.123 689.04 663.826 697.821 690.107 703.032C703.296 705.647 716.618 707.36 728.889 707.441C741.165 707.523 752.357 705.971 761.304 702.081C772.52 697.205 788.336 685.528 805.855 670.057C823.361 654.598 842.527 635.386 860.438 615.482C878.349 595.577 894.998 574.988 907.472 556.775C913.709 547.668 918.897 539.163 922.678 531.639C926.463 524.107 928.819 517.593 929.422 512.461C931.872 491.64 932.242 438.527 927.519 388.343C925.157 363.254 921.524 338.92 916.249 319.735C913.611 310.141 910.568 301.853 907.078 295.406C903.583 288.95 899.669 284.395 895.319 282.19C893.148 281.09 889.796 280.183 885.378 279.464C880.97 278.746 875.538 278.222 869.229 277.87C856.612 277.165 840.523 277.149 822.174 277.64C785.477 278.622 739.779 281.628 694.825 285.188C649.873 288.747 605.672 292.859 571.97 296.05C567.199 296.502 562.639 296.935 558.317 297.346C547.372 298.386 537.954 299.281 530.511 299.963C525.321 300.439 521.089 300.811 517.97 301.057Z" fill="url(#paint2_linear_1_2)"/>
</g>
<mask id="mask1_1_2" style="mask-type:alpha" maskUnits="userSpaceOnUse" x="162" y="350" width="654" height="324">
<path fill-rule="evenodd" clip-rule="evenodd" d="M468.882 353.991C464.71 356.163 459.498 360.314 457.299 363.213C450.961 371.569 409.368 457.309 409.368 462.018C409.368 466.469 417.119 480.101 430.898 499.881C442.028 515.86 444.151 515.698 452.219 498.264C472.656 454.104 479.304 441.768 484.321 438.709C487.115 437.006 490.703 435.609 492.295 435.605C497.045 435.596 507.29 441.571 511.883 447.032C514.247 449.841 529.513 479.164 545.81 512.194C614.17 650.749 613.21 648.892 620.227 656.113C629.565 665.725 643.515 672.165 656.743 672.97C670.843 673.83 682.951 669.26 694.47 658.731C703.603 650.382 702.074 653.152 764.085 532.628C815.551 432.602 816 431.627 816 420.236C816 411.102 815.465 409.264 811.717 405.513C805.423 399.219 794.275 398.996 729.5 403.872C698.82 406.181 667.899 408.489 660.785 409.002C635.732 410.806 618.864 417.204 607.08 429.37C598.189 438.549 587.225 454.942 587.23 459.048C587.234 460.827 590.771 468.468 595.091 476.028C605.982 495.083 608.332 495.236 618.605 477.551C627.214 462.732 633.645 455.708 641.68 452.351C644.688 451.095 656.036 449.374 666.901 448.53C691.978 446.578 744.134 446.51 747.157 448.423C749.542 449.933 747.718 454.02 728.706 489.774C724.921 496.889 716.9 512.171 710.879 523.734C693.297 557.497 679.375 583.074 675.996 587.82C674.269 590.246 670.358 593.055 667.304 594.063C655.861 597.84 650.54 591.682 628.206 548.8C618.708 530.566 608.045 510.19 604.509 503.52C590.095 476.335 550.187 395.251 541.891 376.298C537.883 367.138 527.961 356.478 520.121 352.907C515.041 350.593 509.665 349.969 495.06 350.001C478.536 350.035 475.622 350.48 468.882 353.991ZM174.382 400.368C167.083 402.319 162.008 409.356 162 417.534C161.994 423.386 168.029 439.732 174.941 452.579C177.332 457.026 188.964 479.222 200.786 501.902C212.608 524.583 226.806 551.509 232.335 561.737C237.865 571.966 246.61 588.339 251.771 598.123C267.375 627.709 284.674 653.967 293.421 661.344C302.447 668.958 308.404 670.559 324.485 669.699C352.04 668.222 363.077 659.231 383.355 621.74C398.336 594.042 402.901 584.03 402.901 578.868C402.901 574.802 380.34 535.589 374.511 529.523C369.709 524.528 368.398 525.569 358.881 541.94C354.878 548.826 347.523 561.477 342.538 570.054C331.254 589.468 325.321 595.697 318.111 595.697C307.71 595.697 305.854 593.139 279.973 543.14C272.607 528.909 264.628 513.627 262.242 509.18C249.082 484.655 231.517 450.431 231.517 449.316C231.517 448.607 254.109 448.459 281.723 448.986C331.864 449.943 331.937 449.95 338.984 454.08C342.866 456.355 348.855 461.511 352.296 465.536C358.495 472.789 387.756 520.902 418.18 573.866C426.865 588.986 435.347 603.329 437.03 605.74C438.712 608.15 440.088 610.488 440.088 610.938C440.088 613.299 455.936 637.807 460.945 643.192C471.601 654.648 486.006 658.446 497.715 652.89C504.399 649.717 512.462 641.45 521.298 628.712C534.085 610.278 561.35 566.608 561.329 564.595C561.3 561.878 548.9 539.587 546.64 538.19C543.925 536.513 541.314 539.842 517.767 575.012C505.53 593.288 494.035 608.746 491.715 610.043C482.418 615.241 479.116 611.84 462.381 579.828C453.339 562.533 427.168 516.192 406.042 480.071C401.362 472.066 393.827 459.051 389.302 451.15C379.143 433.411 370.053 423.04 359.746 417.43C345.676 409.77 349.049 410.177 242.298 403.285C213.991 401.457 188.526 399.679 185.709 399.334C182.893 398.99 177.795 399.454 174.382 400.368Z" fill="url(#paint3_linear_1_2)"/>
</mask>
<g mask="url(#mask1_1_2)">
<path d="M399.64 453.528C399.536 442.375 399.39 419.379 399.64 416.623C378.422 377.749 334.489 300.101 328.498 300.494C321.009 300.987 107.584 263.097 84.8062 281.304C62.0283 299.51 59.8441 470.751 62.9644 512.577C66.0846 554.402 141.283 683.325 169.989 703.008C192.954 718.754 238.635 696.447 258.604 683.325L531.225 739.356L568.541 567.018L546.446 522.829L457.086 550.815L399.64 453.528Z" fill="url(#paint4_linear_1_2)"/>
<path fill-rule="evenodd" clip-rule="evenodd" d="M91.0923 278.049C88.2495 278.778 86.0029 279.719 84.4996 280.92C81.5343 283.29 78.9724 288.078 76.7356 294.594C74.4901 301.135 72.5432 309.509 70.8615 319.155C67.4977 338.449 65.1855 362.889 63.6834 388.054C60.6794 438.38 60.9124 491.671 62.4748 512.613C63.2615 523.16 68.5781 539.126 76.5162 557.404C84.4621 575.7 95.0601 596.368 106.456 616.339C117.851 636.31 130.049 655.593 141.196 671.117C152.328 686.621 162.455 698.437 169.711 703.413C175.562 707.424 182.833 708.994 190.72 708.911C198.608 708.829 207.145 707.093 215.566 704.46C232.313 699.224 248.676 690.414 258.704 683.847L531.602 739.935L569.057 566.953L546.698 522.235L457.31 550.23L400.129 453.392C400.078 447.814 400.016 439.353 399.998 431.925C399.98 424.419 400.007 418.015 400.129 416.667L400.142 416.519L400.071 416.388C389.46 396.948 373.169 367.812 358.781 343.583C351.587 331.469 344.865 320.576 339.564 312.732C336.915 308.812 334.613 305.642 332.78 303.461C331.865 302.372 331.055 301.515 330.369 300.932C330.025 300.641 329.7 300.407 329.398 300.248C329.102 300.092 328.782 299.984 328.466 300.005C328.276 300.017 327.878 299.999 327.249 299.942C326.633 299.886 325.826 299.795 324.838 299.673C322.863 299.427 320.179 299.055 316.881 298.578C312.153 297.895 306.171 296.999 299.217 295.957C296.469 295.545 293.57 295.111 290.537 294.658C269.119 291.459 241.022 287.337 212.446 283.769C183.873 280.201 154.809 277.185 131.46 276.2C119.787 275.708 109.528 275.722 101.467 276.432C97.4365 276.787 93.9436 277.317 91.0923 278.049ZM327.16 300.92C327.78 300.976 328.252 301.003 328.53 300.984C328.588 300.981 328.717 301 328.94 301.117C329.156 301.231 329.421 301.416 329.733 301.681C330.359 302.212 331.128 303.02 332.029 304.093C333.828 306.234 336.107 309.37 338.751 313.282C344.035 321.101 350.746 331.975 357.937 344.084C372.285 368.246 388.53 397.296 399.139 416.73C399.022 418.403 398.998 424.698 399.016 431.927C399.034 439.417 399.097 447.955 399.149 453.533L399.15 453.664L456.861 551.4L546.194 523.422L568.024 567.083L530.848 738.777L258.504 682.803L258.335 682.914C248.377 689.457 232.006 698.291 215.273 703.523C206.908 706.139 198.47 707.848 190.71 707.929C182.95 708.011 175.899 706.464 170.267 702.603C163.17 697.737 153.132 686.057 141.994 670.544C130.87 655.053 118.691 635.801 107.308 615.852C95.9259 595.904 85.3452 575.269 77.4169 557.013C69.4807 538.74 64.2273 522.906 63.454 512.54C61.8961 491.657 61.6611 438.414 64.6636 388.112C66.1648 362.963 68.4744 338.565 71.8289 319.324C73.5064 309.702 75.4427 301.384 77.6644 294.912C79.8946 288.415 82.3836 283.869 85.1128 281.687C86.4568 280.613 88.5468 279.716 91.3364 279C94.1176 278.286 97.553 277.763 101.553 277.41C109.553 276.706 119.763 276.689 131.419 277.181C154.727 278.164 183.759 281.176 212.325 284.743C240.888 288.31 268.976 292.43 290.392 295.629C293.424 296.081 296.322 296.516 299.069 296.927C306.024 297.97 312.01 298.867 316.741 299.55C320.04 300.027 322.732 300.401 324.717 300.647C325.709 300.771 326.528 300.863 327.16 300.92Z" fill="url(#paint5_linear_1_2)"/>
</g>
<defs>
<linearGradient id="paint0_linear_1_2" x1="235.749" y1="459.83" x2="452.188" y2="328.434" gradientUnits="userSpaceOnUse">
<stop stop-color="#01EEF5"/>
<stop offset="0.188799" stop-color="#01EFF5"/>
<stop offset="1" stop-color="#4192EC"/>
</linearGradient>
<linearGradient id="paint1_linear_1_2" x1="460.071" y1="423.374" x2="671.865" y2="345.063" gradientUnits="userSpaceOnUse">
<stop stop-color="#01EEF5"/>
<stop offset="0.188799" stop-color="#01EFF5"/>
<stop offset="1" stop-color="#4192EC"/>
</linearGradient>
<linearGradient id="paint2_linear_1_2" x1="459.668" y1="423.216" x2="671.882" y2="344.78" gradientUnits="userSpaceOnUse">
<stop stop-color="#01EEF5"/>
<stop offset="0.188799" stop-color="#01EFF5"/>
<stop offset="1" stop-color="#4192EC"/>
</linearGradient>
<linearGradient id="paint3_linear_1_2" x1="274" y1="482" x2="392.258" y2="658.614" gradientUnits="userSpaceOnUse">
<stop stop-color="#01F8F5"/>
<stop offset="0.353505" stop-color="#01CAF3"/>
<stop offset="1" stop-color="#006EF0"/>
</linearGradient>
<linearGradient id="paint4_linear_1_2" x1="481.766" y1="465.525" x2="302.586" y2="610.192" gradientUnits="userSpaceOnUse">
<stop stop-color="#01F8F5"/>
<stop offset="0.353505" stop-color="#01CAF3"/>
<stop offset="1" stop-color="#006EF0"/>
</linearGradient>
<linearGradient id="paint5_linear_1_2" x1="482.11" y1="465.471" x2="302.529" y2="610.416" gradientUnits="userSpaceOnUse">
<stop stop-color="#01F8F5"/>
<stop offset="0.353505" stop-color="#01CAF3"/>
<stop offset="1" stop-color="#006EF0"/>
</linearGradient>
</defs>
</svg>
