<svg width="500" height="500" viewBox="0 0 500 500" fill="none" xmlns="http://www.w3.org/2000/svg">
<circle cx="250" cy="250" r="245" fill="black"/>
<mask id="mask0_109_24" style="mask-type:alpha" maskUnits="userSpaceOnUse" x="69" y="165" width="363" height="179">
<path fill-rule="evenodd" clip-rule="evenodd" d="M239.03 167.211C236.719 168.414 233.83 170.714 232.612 172.321C229.101 176.951 206.056 224.455 206.056 227.064C206.056 229.53 210.35 237.083 217.984 248.042C224.151 256.896 225.327 256.806 229.797 247.146C241.121 222.679 244.804 215.845 247.584 214.15C249.132 213.206 251.12 212.432 252.002 212.43C254.634 212.425 260.31 215.735 262.855 218.761C264.164 220.318 272.623 236.564 281.652 254.865C319.527 331.632 318.995 330.603 322.883 334.604C328.057 339.929 335.786 343.497 343.115 343.944C350.927 344.42 357.636 341.888 364.018 336.054C369.078 331.428 368.231 332.963 402.589 266.186C431.104 210.766 431.353 210.226 431.353 203.915C431.353 198.854 431.056 197.835 428.98 195.757C425.492 192.27 419.316 192.147 383.427 194.848C366.429 196.128 349.296 197.406 345.355 197.69C331.474 198.69 322.128 202.235 315.599 208.975C310.673 214.061 304.599 223.144 304.601 225.419C304.603 226.404 306.563 230.638 308.957 234.826C314.991 245.384 316.293 245.469 321.985 235.671C326.755 227.46 330.317 223.568 334.77 221.708C336.436 221.012 342.724 220.059 348.743 219.591C362.637 218.51 391.535 218.472 393.21 219.532C394.531 220.369 393.521 222.633 382.987 242.442C380.89 246.385 376.446 254.852 373.11 261.258C363.368 279.965 355.655 294.136 353.782 296.766C352.826 298.11 350.659 299.666 348.966 300.224C342.627 302.317 339.679 298.905 327.304 275.146C322.042 265.044 316.134 253.754 314.175 250.058C306.189 234.997 284.077 190.072 279.481 179.57C277.26 174.496 271.763 168.589 267.419 166.611C264.604 165.329 261.626 164.983 253.534 165.001C244.379 165.019 242.764 165.266 239.03 167.211ZM75.8601 192.906C71.8164 193.988 69.0045 197.886 69 202.417C68.9964 205.66 72.3405 214.717 76.1701 221.835C77.495 224.299 83.9395 236.596 90.4896 249.162C97.0398 261.729 104.906 276.647 107.97 282.314C111.033 287.981 115.879 297.053 118.738 302.474C127.384 318.866 136.968 333.415 141.814 337.502C146.816 341.721 150.116 342.608 159.026 342.131C174.293 341.313 180.408 336.331 191.643 315.559C199.944 300.213 202.472 294.666 202.472 291.806C202.472 289.553 189.972 267.827 186.743 264.466C184.082 261.698 183.356 262.275 178.083 271.345C175.865 275.161 171.79 282.17 169.028 286.922C162.776 297.679 159.489 301.13 155.494 301.13C149.732 301.13 148.703 299.713 134.364 272.01C130.283 264.126 125.862 255.658 124.539 253.194C117.248 239.607 107.516 220.645 107.516 220.026C107.516 219.634 120.034 219.552 135.333 219.844C163.114 220.374 163.154 220.378 167.059 222.666C169.21 223.927 172.528 226.783 174.434 229.013C177.869 233.032 194.081 259.689 210.938 289.034C215.75 297.412 220.45 305.358 221.382 306.694C222.314 308.029 223.076 309.325 223.076 309.574C223.076 310.882 231.857 324.461 234.632 327.445C240.536 333.792 248.517 335.897 255.005 332.818C258.708 331.06 263.175 326.48 268.071 319.422C275.156 309.208 290.262 285.013 290.25 283.897C290.234 282.392 283.364 270.042 282.112 269.268C280.608 268.338 279.161 270.183 266.115 289.669C259.335 299.795 252.966 308.36 251.68 309.079C246.529 311.958 244.7 310.074 235.428 292.338C230.418 282.755 215.918 257.079 204.213 237.066C201.62 232.631 197.445 225.42 194.938 221.042C189.309 211.214 184.273 205.468 178.562 202.36C170.767 198.116 172.636 198.342 113.49 194.523C97.8057 193.51 83.6967 192.525 82.1362 192.334C80.5757 192.143 77.7512 192.4 75.8601 192.906Z" fill="url(#paint0_linear_109_24)"/>
</mask>
<g mask="url(#mask0_109_24)">
<path d="M200.938 222.4C201.029 216.234 201.156 203.52 200.938 201.997C219.436 180.506 257.739 137.579 262.962 137.796C269.491 138.068 455.564 117.122 475.423 127.187C495.281 137.252 497.186 231.921 494.465 255.044C491.745 278.167 426.184 349.441 401.157 360.322C381.135 369.027 341.309 356.695 323.898 349.441L291.798 282.792L280.917 264.565H260.514L219.981 258.309L200.938 222.4Z" fill="url(#paint1_linear_109_24)"/>
<path fill-rule="evenodd" clip-rule="evenodd" d="M469.879 125.382C472.341 125.783 474.265 126.296 475.545 126.944C478.099 128.239 480.334 130.876 482.293 134.493C484.253 138.115 485.953 142.751 487.42 148.087C490.355 158.761 492.371 172.279 493.681 186.193C496.301 214.02 496.098 243.489 494.735 255.076C494.389 258.013 493.051 261.689 490.944 265.882C488.835 270.08 485.946 274.814 482.481 279.872C475.553 289.989 466.312 301.415 456.378 312.456C446.443 323.497 435.809 334.156 426.091 342.737C416.381 351.312 407.564 357.833 401.264 360.572C396.211 362.769 389.925 363.632 383.084 363.587C376.24 363.541 368.823 362.586 361.495 361.133C346.838 358.227 332.512 353.325 323.793 349.692L323.697 349.652L291.558 282.921L280.761 264.837H260.492L219.803 258.557L200.664 222.465L200.665 222.396C200.71 219.313 200.765 214.594 200.781 210.456C200.789 208.387 200.787 206.464 200.77 204.964C200.752 203.452 200.719 202.394 200.668 202.035L200.65 201.913L200.731 201.819C209.982 191.072 224.185 174.965 236.729 161.57C243.001 154.873 248.861 148.851 253.482 144.515C255.792 142.348 257.797 140.597 259.392 139.394C260.189 138.792 260.889 138.323 261.479 138.006C262.056 137.695 262.568 137.508 262.973 137.525C263.36 137.541 264.45 137.477 266.184 137.34C267.908 137.204 270.25 136.998 273.126 136.735C277.248 136.357 282.465 135.861 288.529 135.285C290.924 135.058 293.451 134.817 296.095 134.567C314.768 132.799 339.261 130.52 364.172 128.548C389.081 126.576 414.412 124.909 434.758 124.365C444.931 124.093 453.862 124.101 460.874 124.492C464.38 124.688 467.411 124.98 469.879 125.382ZM266.227 137.883C264.508 138.018 263.379 138.086 262.95 138.068C262.702 138.058 262.303 138.18 261.736 138.485C261.182 138.783 260.506 139.235 259.719 139.828C258.148 141.014 256.159 142.75 253.854 144.912C249.246 149.236 243.395 155.248 237.126 161.942C224.624 175.292 210.471 191.34 201.221 202.084C201.27 202.563 201.298 203.598 201.314 204.957C201.331 206.462 201.333 208.388 201.325 210.458C201.309 214.568 201.255 219.249 201.21 222.334L220.156 258.06L260.534 264.293H281.07L292.037 282.663L324.098 349.229C332.798 352.847 347.039 357.712 361.6 360.599C368.907 362.048 376.289 362.997 383.088 363.043C389.889 363.088 396.09 362.228 401.048 360.073C407.262 357.371 416.025 350.901 425.731 342.33C435.43 333.764 446.05 323.12 455.973 312.092C465.897 301.063 475.121 289.656 482.032 279.565C485.488 274.519 488.363 269.807 490.458 265.638C492.554 261.465 493.86 257.856 494.194 255.012C495.551 243.476 495.757 214.049 493.14 186.244C491.831 172.343 489.818 158.861 486.895 148.231C485.434 142.916 483.748 138.324 481.814 134.752C479.878 131.175 477.709 128.651 475.299 127.43C474.096 126.82 472.239 126.317 469.791 125.919C467.349 125.521 464.339 125.231 460.844 125.036C453.853 124.645 444.939 124.637 434.773 124.909C414.441 125.452 389.121 127.118 364.215 129.09C339.308 131.062 314.818 133.341 296.146 135.109C293.503 135.359 290.976 135.599 288.581 135.827C282.517 136.403 277.299 136.899 273.175 137.277C270.299 137.54 267.955 137.746 266.227 137.883Z" fill="url(#paint2_linear_109_24)"/>
</g>
<mask id="mask1_109_24" style="mask-type:alpha" maskUnits="userSpaceOnUse" x="69" y="165" width="363" height="179">
<path fill-rule="evenodd" clip-rule="evenodd" d="M239.03 167.211C236.719 168.414 233.83 170.714 232.612 172.321C229.101 176.951 206.056 224.455 206.056 227.064C206.056 229.53 210.35 237.083 217.984 248.042C224.151 256.896 225.327 256.806 229.797 247.146C241.121 222.679 244.804 215.845 247.584 214.15C249.132 213.206 251.12 212.432 252.002 212.43C254.634 212.425 260.31 215.735 262.855 218.761C264.164 220.318 272.623 236.564 281.652 254.865C319.527 331.632 318.995 330.603 322.883 334.604C328.057 339.929 335.786 343.497 343.115 343.944C350.927 344.42 357.636 341.888 364.018 336.054C369.078 331.428 368.231 332.963 402.589 266.186C431.104 210.766 431.353 210.226 431.353 203.915C431.353 198.854 431.056 197.835 428.98 195.757C425.492 192.27 419.316 192.147 383.427 194.848C366.429 196.128 349.296 197.406 345.355 197.69C331.474 198.69 322.128 202.235 315.599 208.975C310.673 214.061 304.599 223.144 304.601 225.419C304.603 226.404 306.563 230.638 308.957 234.826C314.991 245.384 316.293 245.469 321.985 235.671C326.755 227.46 330.317 223.568 334.77 221.708C336.436 221.012 342.724 220.059 348.743 219.591C362.637 218.51 391.535 218.472 393.21 219.532C394.531 220.369 393.521 222.633 382.987 242.442C380.89 246.385 376.446 254.852 373.11 261.258C363.368 279.965 355.655 294.136 353.782 296.766C352.826 298.11 350.659 299.666 348.966 300.224C342.627 302.317 339.679 298.905 327.304 275.146C322.042 265.044 316.134 253.754 314.175 250.058C306.189 234.997 284.077 190.072 279.481 179.57C277.26 174.496 271.763 168.589 267.419 166.611C264.604 165.329 261.626 164.983 253.534 165.001C244.379 165.019 242.764 165.266 239.03 167.211ZM75.8601 192.906C71.8164 193.988 69.0045 197.886 69 202.417C68.9964 205.66 72.3405 214.717 76.1701 221.835C77.495 224.299 83.9395 236.596 90.4896 249.162C97.0398 261.729 104.906 276.647 107.97 282.314C111.033 287.981 115.879 297.053 118.738 302.474C127.384 318.866 136.968 333.415 141.814 337.502C146.816 341.721 150.116 342.608 159.026 342.131C174.293 341.313 180.408 336.331 191.643 315.559C199.944 300.213 202.472 294.666 202.472 291.806C202.472 289.553 189.972 267.827 186.743 264.466C184.082 261.698 183.356 262.275 178.083 271.345C175.865 275.161 171.79 282.17 169.028 286.922C162.776 297.679 159.489 301.13 155.494 301.13C149.732 301.13 148.703 299.713 134.364 272.01C130.283 264.126 125.862 255.658 124.539 253.194C117.248 239.607 107.516 220.645 107.516 220.026C107.516 219.634 120.034 219.552 135.333 219.844C163.114 220.374 163.154 220.378 167.059 222.666C169.21 223.927 172.528 226.783 174.434 229.013C177.869 233.032 194.081 259.689 210.938 289.034C215.75 297.412 220.45 305.358 221.382 306.694C222.314 308.029 223.076 309.325 223.076 309.574C223.076 310.882 231.857 324.461 234.632 327.445C240.536 333.792 248.517 335.897 255.005 332.818C258.708 331.06 263.175 326.48 268.071 319.422C275.156 309.208 290.262 285.013 290.25 283.897C290.234 282.392 283.364 270.042 282.112 269.268C280.608 268.338 279.161 270.183 266.115 289.669C259.335 299.795 252.966 308.36 251.68 309.079C246.529 311.958 244.7 310.074 235.428 292.338C230.418 282.755 215.918 257.079 204.213 237.066C201.62 232.631 197.445 225.42 194.938 221.042C189.309 211.214 184.273 205.468 178.562 202.36C170.767 198.116 172.636 198.342 113.49 194.523C97.8057 193.51 83.6967 192.525 82.1362 192.334C80.5757 192.143 77.7512 192.4 75.8601 192.906Z" fill="url(#paint3_linear_109_24)"/>
</mask>
<g mask="url(#mask1_109_24)">
<path d="M200.666 222.36C200.608 216.181 200.528 203.44 200.666 201.913C188.91 180.375 164.569 137.353 161.25 137.571C157.1 137.844 38.8509 116.851 26.2307 126.938C13.6105 137.026 12.4003 231.903 14.1291 255.077C15.8579 278.25 57.5219 349.681 73.4268 360.586C86.1507 369.31 111.46 356.951 122.525 349.681L273.572 380.725L294.247 285.24L282.005 260.757L232.494 276.263L200.666 222.36Z" fill="url(#paint4_linear_109_24)"/>
<path fill-rule="evenodd" clip-rule="evenodd" d="M29.7131 125.135C28.138 125.539 26.8932 126.06 26.0603 126.726C24.4174 128.039 22.9979 130.691 21.7586 134.302C20.5145 137.926 19.4358 142.566 18.5041 147.91C16.6404 158.6 15.3592 172.141 14.527 186.084C12.8626 213.968 12.9917 243.493 13.8573 255.097C14.2933 260.94 17.2389 269.787 21.6371 279.914C26.0396 290.051 31.9115 301.502 38.2251 312.567C44.5388 323.632 51.297 334.315 57.4733 342.917C63.6412 351.507 69.252 358.054 73.2724 360.81C76.514 363.033 80.5425 363.903 84.9126 363.857C89.283 363.811 94.013 362.85 98.6787 361.391C107.957 358.49 117.023 353.608 122.579 349.97L273.78 381.046L294.532 285.204L282.144 260.428L232.618 275.939L200.937 222.285C200.908 219.194 200.874 214.506 200.864 210.391C200.854 206.232 200.869 202.684 200.936 201.937L200.944 201.855L200.904 201.782C195.026 191.012 186 174.869 178.027 161.445C174.042 154.733 170.317 148.697 167.38 144.351C165.913 142.179 164.637 140.423 163.622 139.215C163.115 138.611 162.666 138.137 162.286 137.814C162.095 137.652 161.915 137.523 161.747 137.435C161.583 137.348 161.407 137.288 161.231 137.3C161.126 137.307 160.905 137.297 160.557 137.265C160.216 137.234 159.768 137.184 159.221 137.116C158.127 136.98 156.64 136.774 154.813 136.51C152.193 136.131 148.879 135.634 145.026 135.057C143.503 134.829 141.897 134.588 140.217 134.337C128.35 132.565 112.783 130.281 96.95 128.304C81.1186 126.327 65.0158 124.656 52.079 124.111C45.6114 123.838 39.9274 123.846 35.4611 124.239C33.2281 124.436 31.2928 124.73 29.7131 125.135ZM160.508 137.807C160.851 137.838 161.113 137.853 161.267 137.843C161.299 137.84 161.371 137.851 161.494 137.916C161.614 137.979 161.76 138.082 161.934 138.229C162.28 138.523 162.706 138.971 163.205 139.565C164.202 140.751 165.465 142.489 166.93 144.656C169.858 148.988 173.576 155.013 177.56 161.722C185.51 175.109 194.51 191.205 200.388 201.972C200.323 202.899 200.31 206.387 200.32 210.392C200.33 214.542 200.365 219.273 200.394 222.363L200.394 222.436L232.369 276.587L281.865 261.086L293.96 285.276L273.362 380.404L122.469 349.391L122.375 349.453C116.858 353.078 107.787 357.973 98.5163 360.872C93.8812 362.321 89.2065 363.268 84.9069 363.313C80.6072 363.358 76.7005 362.501 73.5801 360.362C69.6481 357.666 64.0866 351.194 57.9152 342.6C51.7523 334.017 45.0042 323.35 38.6977 312.297C32.3912 301.245 26.5289 289.812 22.1361 279.697C17.739 269.572 14.8284 260.8 14.3999 255.056C13.5367 243.486 13.4066 213.986 15.0701 186.116C15.9018 172.182 17.1815 158.664 19.0401 148.004C19.9695 142.673 21.0423 138.064 22.2732 134.478C23.5089 130.879 24.888 128.36 26.4001 127.151C27.1447 126.556 28.3027 126.059 29.8483 125.662C31.3892 125.267 33.2926 124.976 35.5089 124.781C39.9411 124.391 45.5983 124.382 52.0561 124.654C64.9702 125.199 81.0554 126.868 96.8826 128.844C112.708 130.82 128.27 133.103 140.136 134.875C141.816 135.126 143.422 135.367 144.944 135.595C148.797 136.172 152.114 136.669 154.735 137.048C156.563 137.312 158.054 137.519 159.154 137.656C159.704 137.724 160.158 137.775 160.508 137.807Z" fill="url(#paint5_linear_109_24)"/>
</g>
<defs>
<linearGradient id="paint0_linear_109_24" x1="109.861" y1="225.852" x2="229.781" y2="153.051" gradientUnits="userSpaceOnUse">
<stop stop-color="#01EEF5"/>
<stop offset="0.188799" stop-color="#01EFF5"/>
<stop offset="1" stop-color="#4192EC"/>
</linearGradient>
<linearGradient id="paint1_linear_109_24" x1="234.149" y1="205.653" x2="351.494" y2="162.265" gradientUnits="userSpaceOnUse">
<stop stop-color="#01EEF5"/>
<stop offset="0.188799" stop-color="#01EFF5"/>
<stop offset="1" stop-color="#4192EC"/>
</linearGradient>
<linearGradient id="paint2_linear_109_24" x1="233.924" y1="205.566" x2="351.503" y2="162.108" gradientUnits="userSpaceOnUse">
<stop stop-color="#01EEF5"/>
<stop offset="0.188799" stop-color="#01EFF5"/>
<stop offset="1" stop-color="#4192EC"/>
</linearGradient>
<linearGradient id="paint3_linear_109_24" x1="131.054" y1="238.135" x2="196.576" y2="335.989" gradientUnits="userSpaceOnUse">
<stop stop-color="#01F8F5"/>
<stop offset="0.353505" stop-color="#01CAF3"/>
<stop offset="1" stop-color="#006EF0"/>
</linearGradient>
<linearGradient id="paint4_linear_109_24" x1="246.169" y1="229.007" x2="146.893" y2="309.161" gradientUnits="userSpaceOnUse">
<stop stop-color="#01F8F5"/>
<stop offset="0.353505" stop-color="#01CAF3"/>
<stop offset="1" stop-color="#006EF0"/>
</linearGradient>
<linearGradient id="paint5_linear_109_24" x1="246.359" y1="228.977" x2="146.861" y2="309.285" gradientUnits="userSpaceOnUse">
<stop stop-color="#01F8F5"/>
<stop offset="0.353505" stop-color="#01CAF3"/>
<stop offset="1" stop-color="#006EF0"/>
</linearGradient>
</defs>
</svg>
