<svg width="1000" height="1000" viewBox="0 0 1000 1000" fill="none" xmlns="http://www.w3.org/2000/svg">
<mask id="mask0_7_43" style="mask-type:alpha" maskUnits="userSpaceOnUse" x="104" y="305" width="792" height="391">
<path fill-rule="evenodd" clip-rule="evenodd" d="M475.406 309.83C470.357 312.458 464.049 317.482 461.387 320.992C453.717 331.104 403.379 434.872 403.379 440.571C403.379 445.957 412.759 462.456 429.435 486.394C442.906 505.733 445.475 505.537 455.239 484.437C479.973 430.993 488.019 416.063 494.091 412.36C497.472 410.299 501.814 408.608 503.742 408.604C509.491 408.593 521.889 415.824 527.448 422.434C530.309 425.833 548.785 461.321 568.509 501.296C651.241 668.983 650.079 666.736 658.572 675.475C669.874 687.108 686.757 694.902 702.765 695.877C719.83 696.918 734.485 691.387 748.425 678.644C759.479 668.539 757.627 671.891 832.678 526.027C894.964 404.97 895.508 403.79 895.508 390.003C895.508 378.949 894.86 376.724 890.324 372.185C882.706 364.568 869.214 364.298 790.82 370.199C753.69 372.994 716.267 375.787 707.657 376.407C677.337 378.591 656.922 386.334 642.661 401.058C631.901 412.167 618.632 432.006 618.638 436.976C618.642 439.129 622.923 448.376 628.151 457.526C641.332 480.587 644.176 480.773 656.609 459.37C667.029 441.434 674.811 432.934 684.536 428.871C688.176 427.35 701.91 425.268 715.06 424.246C745.409 421.884 808.531 421.802 812.19 424.117C815.076 425.945 812.869 430.891 789.859 474.162C785.279 482.774 775.571 501.269 768.284 515.263C747.006 556.125 730.156 587.079 726.067 592.824C723.977 595.759 719.243 599.159 715.547 600.378C701.699 604.95 695.259 597.497 668.228 545.599C656.734 523.532 643.829 498.871 639.55 490.798C622.105 457.898 573.806 359.765 563.766 336.827C558.915 325.742 546.906 312.84 537.418 308.518C531.27 305.718 524.763 304.962 507.088 305.001C487.09 305.043 483.563 305.581 475.406 309.83ZM118.985 365.958C110.152 368.32 104.01 376.836 104 386.733C103.992 393.816 111.297 413.599 119.662 429.147C122.556 434.529 136.633 461.391 150.941 488.841C165.249 516.29 182.431 548.877 189.124 561.256C195.816 573.635 206.4 593.452 212.646 605.293C231.531 641.099 252.466 672.878 263.053 681.806C273.977 691.021 281.186 692.958 300.648 691.917C333.997 690.13 347.354 679.248 371.896 633.875C390.028 600.353 395.552 588.236 395.552 581.989C395.552 577.068 368.247 529.611 361.193 522.269C355.381 516.224 353.794 517.484 342.276 537.297C337.432 545.63 328.53 560.941 322.497 571.322C308.841 594.818 301.66 602.357 292.934 602.357C280.347 602.357 278.1 599.261 246.778 538.749C237.863 521.526 228.206 503.03 225.318 497.648C209.392 467.968 188.133 426.548 188.133 425.197C188.133 424.34 215.476 424.16 248.895 424.798C309.579 425.957 309.667 425.965 318.196 430.963C322.895 433.717 330.143 439.956 334.307 444.828C341.809 453.606 377.223 511.836 414.043 575.935C424.555 594.235 434.82 611.593 436.857 614.511C438.892 617.427 440.557 620.257 440.557 620.801C440.557 623.659 459.738 653.32 465.8 659.837C478.697 673.702 496.13 678.299 510.301 671.574C518.39 667.734 528.149 657.729 538.842 642.313C554.318 620.003 587.316 567.151 587.29 564.715C587.255 561.427 572.248 534.449 569.513 532.758C566.227 530.728 563.067 534.758 534.569 577.323C519.76 599.441 505.847 618.149 503.039 619.719C491.788 626.009 487.792 621.893 467.537 583.151C456.595 562.219 424.921 506.134 399.354 462.419C393.689 452.731 384.57 436.98 379.093 427.417C366.799 405.949 355.798 393.397 343.323 386.608C326.296 377.337 330.377 377.83 201.181 369.488C166.922 367.277 136.103 365.124 132.694 364.707C129.285 364.29 123.116 364.852 118.985 365.958Z" fill="url(#paint0_linear_7_43)"/>
</mask>
<g mask="url(#mask0_7_43)">
<path d="M392.199 430.381C392.397 416.912 392.674 389.142 392.199 385.815C432.606 338.871 516.273 245.102 527.682 245.578C541.944 246.172 948.394 200.416 991.772 222.403C1035.15 244.389 1039.31 451.179 1033.37 501.688C1027.43 552.198 884.217 707.884 829.549 731.653C785.814 750.669 698.819 723.73 660.789 707.884L590.67 562.299L566.901 522.486H522.334L433.795 508.819L392.199 430.381Z" fill="url(#paint1_linear_7_43)"/>
<path fill-rule="evenodd" clip-rule="evenodd" d="M979.664 218.46C985.043 219.335 989.246 220.456 992.041 221.873C997.62 224.701 1002.5 230.46 1006.78 238.361C1011.06 246.273 1014.78 256.399 1017.98 268.056C1024.39 291.372 1028.8 320.899 1031.66 351.294C1037.38 412.077 1036.94 476.447 1033.96 501.758C1033.2 508.174 1030.28 516.204 1025.68 525.363C1021.07 534.532 1014.76 544.874 1007.19 555.922C992.058 578.02 971.873 602.98 950.172 627.096C928.471 651.213 905.243 674.497 884.016 693.242C862.806 711.973 843.545 726.216 829.786 732.198C818.746 736.998 805.016 738.883 790.073 738.784C775.124 738.685 758.922 736.599 742.914 733.425C710.899 727.077 679.605 716.368 660.56 708.433L660.351 708.346L590.146 562.581L566.564 523.081H522.289L433.409 509.361L391.603 430.525L391.605 430.373C391.704 423.64 391.823 413.332 391.857 404.293C391.875 399.773 391.871 395.572 391.833 392.295C391.795 388.994 391.723 386.682 391.611 385.899L391.573 385.631L391.749 385.427C411.956 361.951 442.98 326.767 470.381 297.508C484.081 282.879 496.882 269.725 506.976 260.254C512.021 255.52 516.401 251.696 519.884 249.067C521.625 247.753 523.156 246.727 524.443 246.035C525.705 245.356 526.822 244.947 527.707 244.984C528.554 245.019 530.933 244.88 534.721 244.581C538.488 244.284 543.604 243.834 549.885 243.259C558.89 242.434 570.286 241.351 583.53 240.092C588.762 239.595 594.282 239.071 600.057 238.524C640.845 234.661 694.348 229.684 748.761 225.376C803.173 221.067 858.504 217.427 902.947 216.238C925.168 215.643 944.678 215.662 959.994 216.517C967.652 216.945 974.272 217.582 979.664 218.46ZM534.815 245.766C531.061 246.062 528.594 246.21 527.658 246.171C527.116 246.149 526.243 246.416 525.006 247.082C523.794 247.733 522.318 248.719 520.6 250.016C517.167 252.607 512.823 256.397 507.789 261.121C497.723 270.565 484.943 283.698 471.249 298.32C443.94 327.48 413.024 362.536 392.82 386.004C392.926 387.05 392.987 389.311 393.022 392.281C393.059 395.567 393.063 399.775 393.046 404.297C393.011 413.274 392.894 423.499 392.795 430.238L434.18 508.277L522.38 521.892H567.238L591.194 562.018L661.226 707.423C680.231 715.325 711.338 725.953 743.145 732.259C759.106 735.424 775.23 737.497 790.081 737.596C804.938 737.694 818.483 735.816 829.312 731.109C842.886 725.207 862.027 711.075 883.23 692.351C904.416 673.641 927.612 650.39 949.289 626.301C970.966 602.211 991.115 577.293 1006.21 555.251C1013.76 544.229 1020.04 533.935 1024.62 524.83C1029.2 515.714 1032.05 507.83 1032.78 501.619C1035.74 476.421 1036.19 412.141 1030.47 351.405C1027.62 321.04 1023.22 291.591 1016.83 268.371C1013.64 256.761 1009.96 246.729 1005.73 238.927C1001.51 231.114 996.768 225.601 991.503 222.933C988.876 221.601 984.82 220.503 979.473 219.633C974.138 218.765 967.563 218.13 959.928 217.704C944.659 216.851 925.186 216.832 902.979 217.426C858.567 218.614 803.261 222.253 748.855 226.56C694.451 230.868 640.956 235.844 600.169 239.707C594.395 240.254 588.876 240.778 583.645 241.275C570.399 242.534 559.001 243.617 549.993 244.442C543.711 245.018 538.589 245.469 534.815 245.766Z" fill="url(#paint2_linear_7_43)"/>
</g>
<mask id="mask1_7_43" style="mask-type:alpha" maskUnits="userSpaceOnUse" x="104" y="305" width="792" height="391">
<path fill-rule="evenodd" clip-rule="evenodd" d="M475.406 309.83C470.357 312.458 464.049 317.482 461.387 320.992C453.717 331.104 403.379 434.872 403.379 440.571C403.379 445.957 412.759 462.456 429.435 486.394C442.906 505.733 445.475 505.537 455.239 484.437C479.973 430.993 488.019 416.063 494.091 412.36C497.472 410.299 501.814 408.608 503.742 408.604C509.491 408.593 521.889 415.824 527.448 422.434C530.309 425.833 548.785 461.321 568.509 501.296C651.241 668.983 650.079 666.736 658.572 675.475C669.874 687.108 686.757 694.902 702.765 695.877C719.83 696.918 734.485 691.387 748.425 678.644C759.479 668.539 757.627 671.891 832.678 526.027C894.964 404.97 895.508 403.79 895.508 390.003C895.508 378.949 894.86 376.724 890.324 372.185C882.706 364.568 869.214 364.298 790.82 370.199C753.69 372.994 716.267 375.787 707.657 376.407C677.337 378.591 656.922 386.334 642.661 401.058C631.901 412.167 618.632 432.006 618.638 436.976C618.642 439.129 622.923 448.376 628.151 457.526C641.332 480.587 644.176 480.773 656.609 459.37C667.029 441.434 674.811 432.934 684.536 428.871C688.176 427.35 701.91 425.268 715.06 424.246C745.409 421.884 808.531 421.802 812.19 424.117C815.076 425.945 812.869 430.891 789.859 474.162C785.279 482.774 775.571 501.269 768.284 515.263C747.006 556.125 730.156 587.079 726.067 592.824C723.977 595.759 719.243 599.159 715.547 600.378C701.699 604.95 695.259 597.497 668.228 545.599C656.734 523.532 643.829 498.871 639.55 490.798C622.105 457.898 573.806 359.765 563.766 336.827C558.915 325.742 546.906 312.84 537.418 308.518C531.27 305.718 524.763 304.962 507.088 305.001C487.09 305.043 483.563 305.581 475.406 309.83ZM118.985 365.958C110.152 368.32 104.01 376.836 104 386.733C103.992 393.816 111.297 413.599 119.662 429.147C122.556 434.529 136.633 461.391 150.941 488.841C165.249 516.29 182.431 548.877 189.124 561.256C195.816 573.635 206.4 593.452 212.646 605.293C231.531 641.099 252.466 672.878 263.053 681.806C273.977 691.021 281.186 692.958 300.648 691.917C333.997 690.13 347.354 679.248 371.896 633.875C390.028 600.353 395.552 588.236 395.552 581.989C395.552 577.068 368.247 529.611 361.193 522.269C355.381 516.224 353.794 517.484 342.276 537.297C337.432 545.63 328.53 560.941 322.497 571.322C308.841 594.818 301.66 602.357 292.934 602.357C280.347 602.357 278.1 599.261 246.778 538.749C237.863 521.526 228.206 503.03 225.318 497.648C209.392 467.968 188.133 426.548 188.133 425.197C188.133 424.34 215.476 424.16 248.895 424.798C309.579 425.957 309.667 425.965 318.196 430.963C322.895 433.717 330.143 439.956 334.307 444.828C341.809 453.606 377.223 511.836 414.043 575.935C424.555 594.235 434.82 611.593 436.857 614.511C438.892 617.427 440.557 620.257 440.557 620.801C440.557 623.659 459.738 653.32 465.8 659.837C478.697 673.702 496.13 678.299 510.301 671.574C518.39 667.734 528.149 657.729 538.842 642.313C554.318 620.003 587.316 567.151 587.29 564.715C587.255 561.427 572.248 534.449 569.513 532.758C566.227 530.728 563.067 534.758 534.569 577.323C519.76 599.441 505.847 618.149 503.039 619.719C491.788 626.009 487.792 621.893 467.537 583.151C456.595 562.219 424.921 506.134 399.354 462.419C393.689 452.731 384.57 436.98 379.093 427.417C366.799 405.949 355.798 393.397 343.323 386.608C326.296 377.337 330.377 377.83 201.181 369.488C166.922 367.277 136.103 365.124 132.694 364.707C129.285 364.29 123.116 364.852 118.985 365.958Z" fill="url(#paint3_linear_7_43)"/>
</mask>
<g mask="url(#mask1_7_43)">
<path d="M391.605 430.296C391.479 416.797 391.303 388.966 391.605 385.631C365.926 338.584 312.756 244.609 305.505 245.086C296.442 245.681 38.1427 199.825 10.5756 221.86C-16.9914 243.895 -19.6348 451.139 -15.8585 501.759C-12.0822 552.379 78.9268 708.408 113.669 732.23C141.462 751.287 196.747 724.289 220.916 708.408L550.857 776.22L596.018 567.647L569.278 514.167L461.129 548.038L391.605 430.296Z" fill="url(#paint4_linear_7_43)"/>
<path fill-rule="evenodd" clip-rule="evenodd" d="M18.1836 217.921C14.7431 218.803 12.024 219.942 10.2048 221.396C6.61597 224.264 3.51538 230.058 0.808289 237.944C-1.9093 245.86 -4.26556 255.995 -6.30084 267.67C-10.3719 291.02 -13.1703 320.599 -14.9882 351.055C-18.6239 411.963 -18.3418 476.458 -16.4509 501.804C-15.4988 514.568 -9.06433 533.892 0.542786 556.013C10.1594 578.155 22.9857 603.169 36.777 627.339C50.5684 651.509 65.3306 674.845 78.8218 693.634C92.2948 712.397 104.551 726.698 113.333 732.72C120.414 737.575 129.213 739.475 138.759 739.375C148.306 739.275 158.638 737.174 168.829 733.988C189.096 727.651 208.9 716.988 221.037 709.04L551.314 776.921L596.643 567.569L569.583 513.449L461.401 547.33L392.198 430.131C392.135 423.38 392.06 413.14 392.039 404.15C392.017 395.066 392.049 387.316 392.197 385.684L392.213 385.505L392.127 385.346C379.285 361.819 359.569 326.557 342.155 297.234C333.449 282.573 325.314 269.389 318.898 259.896C315.692 255.152 312.906 251.316 310.688 248.676C309.581 247.358 308.601 246.321 307.769 245.615C307.354 245.263 306.96 244.98 306.594 244.787C306.236 244.599 305.849 244.467 305.466 244.493C305.236 244.508 304.754 244.486 303.994 244.417C303.248 244.349 302.271 244.24 301.076 244.091C298.685 243.794 295.437 243.344 291.446 242.767C285.724 241.94 278.484 240.855 270.067 239.594C266.742 239.095 263.234 238.57 259.563 238.021C233.642 234.15 199.637 229.162 165.053 224.843C130.472 220.525 95.2974 216.875 67.0389 215.683C52.9113 215.087 40.4954 215.105 30.7394 215.964C25.8616 216.394 21.6344 217.035 18.1836 217.921ZM303.886 245.601C304.636 245.669 305.208 245.701 305.544 245.679C305.614 245.674 305.771 245.697 306.04 245.839C306.302 245.977 306.622 246.2 307 246.522C307.757 247.164 308.688 248.143 309.778 249.44C311.956 252.032 314.714 255.828 317.914 260.562C324.309 270.025 332.431 283.186 341.133 297.84C358.499 327.083 378.159 362.241 390.999 385.76C390.857 387.785 390.829 395.404 390.85 404.153C390.872 413.217 390.948 423.551 391.011 430.301L391.012 430.461L460.857 548.746L568.973 514.885L595.393 567.726L550.401 775.52L220.795 707.777L220.59 707.912C208.539 715.83 188.726 726.522 168.475 732.854C158.35 736.019 148.138 738.088 138.747 738.186C129.355 738.285 120.821 736.413 114.005 731.74C105.416 725.851 93.2676 711.715 79.7872 692.941C66.3251 674.193 51.5849 650.892 37.8093 626.75C24.0335 602.607 11.2282 577.633 1.63281 555.539C-7.97198 533.423 -14.3299 514.261 -15.2659 501.715C-17.1513 476.441 -17.4357 412.003 -13.8019 351.125C-11.9851 320.688 -9.18988 291.16 -5.13007 267.874C-3.09985 256.229 -0.75647 246.162 1.93231 238.33C4.63153 230.467 7.64386 224.964 10.9468 222.324C12.5734 221.024 15.1028 219.938 18.4791 219.072C21.8449 218.208 26.0027 217.574 30.8437 217.148C40.5253 216.295 52.8827 216.275 66.9888 216.87C95.1978 218.061 130.334 221.706 164.906 226.023C199.475 230.339 233.468 235.326 259.388 239.197C263.057 239.745 266.564 240.27 269.888 240.769C278.306 242.03 285.551 243.116 291.276 243.943C295.269 244.52 298.526 244.972 300.929 245.271C302.13 245.42 303.121 245.531 303.886 245.601Z" fill="url(#paint5_linear_7_43)"/>
</g>
<defs>
<linearGradient id="paint0_linear_7_43" x1="193.255" y1="437.922" x2="455.202" y2="278.9" gradientUnits="userSpaceOnUse">
<stop stop-color="#01EEF5"/>
<stop offset="0.188799" stop-color="#01EFF5"/>
<stop offset="1" stop-color="#4192EC"/>
</linearGradient>
<linearGradient id="paint1_linear_7_43" x1="464.743" y1="393.801" x2="721.067" y2="299.025" gradientUnits="userSpaceOnUse">
<stop stop-color="#01EEF5"/>
<stop offset="0.188799" stop-color="#01EFF5"/>
<stop offset="1" stop-color="#4192EC"/>
</linearGradient>
<linearGradient id="paint2_linear_7_43" x1="464.254" y1="393.611" x2="721.088" y2="298.682" gradientUnits="userSpaceOnUse">
<stop stop-color="#01EEF5"/>
<stop offset="0.188799" stop-color="#01EFF5"/>
<stop offset="1" stop-color="#4192EC"/>
</linearGradient>
<linearGradient id="paint3_linear_7_43" x1="239.549" y1="464.754" x2="382.671" y2="678.502" gradientUnits="userSpaceOnUse">
<stop stop-color="#01F8F5"/>
<stop offset="0.353505" stop-color="#01CAF3"/>
<stop offset="1" stop-color="#006EF0"/>
</linearGradient>
<linearGradient id="paint4_linear_7_43" x1="490.998" y1="444.814" x2="274.146" y2="619.899" gradientUnits="userSpaceOnUse">
<stop stop-color="#01F8F5"/>
<stop offset="0.353505" stop-color="#01CAF3"/>
<stop offset="1" stop-color="#006EF0"/>
</linearGradient>
<linearGradient id="paint5_linear_7_43" x1="491.415" y1="444.749" x2="274.076" y2="620.17" gradientUnits="userSpaceOnUse">
<stop stop-color="#01F8F5"/>
<stop offset="0.353505" stop-color="#01CAF3"/>
<stop offset="1" stop-color="#006EF0"/>
</linearGradient>
</defs>
</svg>
