<svg width="24" height="24" viewBox="0 0 24 24" fill="none" xmlns="http://www.w3.org/2000/svg">
<path fill-rule="evenodd" clip-rule="evenodd" d="M0 12C0 5.37258 5.37258 0 12 0C18.6274 0 24 5.37258 24 12C24 18.6274 18.6274 24 12 24C5.37258 24 0 18.6274 0 12Z" fill="white"/>
<path d="M8.65948 7.41135C8.64183 6.6102 8.06892 6 7.13861 6C6.2083 6 5.6001 6.6102 5.6001 7.41135C5.6001 8.1959 6.19033 8.82367 7.10331 8.82367H7.12069C8.06892 8.82367 8.65948 8.1959 8.65948 7.41135Z" fill="url(#paint0_linear_103_186)"/>
<path d="M8.48037 9.93896H5.76091V18.1098H8.48037V9.93896Z" fill="url(#paint1_linear_103_186)"/>
<path d="M15.1567 9.74707C16.9462 9.74707 18.2878 10.9151 18.2878 13.4249L18.2877 18.1098H15.5683V13.7384C15.5683 12.6404 15.1748 11.8911 14.1904 11.8911C13.4391 11.8911 12.9915 12.3962 12.795 12.8841C12.7231 13.0589 12.7054 13.3025 12.7054 13.5467V18.11H9.98566C9.98566 18.11 10.0215 10.7059 9.98566 9.93915H12.7054V11.0965C13.0664 10.5401 13.7128 9.74707 15.1567 9.74707Z" fill="url(#paint2_linear_103_186)"/>
<defs>
<linearGradient id="paint0_linear_103_186" x1="6.81827" y1="5.58858" x2="16.8434" y2="18.5671" gradientUnits="userSpaceOnUse">
<stop stop-color="#272A59"/>
<stop offset="1" stop-color="#010012"/>
</linearGradient>
<linearGradient id="paint1_linear_103_186" x1="6.81827" y1="5.58858" x2="16.8434" y2="18.5671" gradientUnits="userSpaceOnUse">
<stop stop-color="#272A59"/>
<stop offset="1" stop-color="#010012"/>
</linearGradient>
<linearGradient id="paint2_linear_103_186" x1="6.81827" y1="5.58858" x2="16.8434" y2="18.5671" gradientUnits="userSpaceOnUse">
<stop stop-color="#272A59"/>
<stop offset="1" stop-color="#010012"/>
</linearGradient>
</defs>
</svg>
