<svg width="48" height="48" viewBox="0 0 48 48" fill="none" xmlns="http://www.w3.org/2000/svg">
<g clip-path="url(#clip0_103_436)">
<path fill-rule="evenodd" clip-rule="evenodd" d="M17.484 30.516C17.2027 30.2348 16.8212 30.0768 16.4235 30.0768C16.0257 30.0768 15.6442 30.2348 15.363 30.516L3.07495 42.804V34.5C3.07495 34.1022 2.91692 33.7207 2.63561 33.4394C2.35431 33.158 1.97278 33 1.57495 33C1.17713 33 0.795596 33.158 0.514291 33.4394C0.232986 33.7207 0.0749512 34.1022 0.0749512 34.5V46.425C0.0749512 46.8228 0.232986 47.2044 0.514291 47.4857C0.795596 47.767 1.17713 47.925 1.57495 47.925H13.5C13.8978 47.925 14.2793 47.767 14.5606 47.4857C14.8419 47.2044 15 46.8228 15 46.425C15 46.0272 14.8419 45.6457 14.5606 45.3644C14.2793 45.083 13.8978 44.925 13.5 44.925H5.19595L17.484 32.637C17.7652 32.3557 17.9231 31.9743 17.9231 31.5765C17.9231 31.1788 17.7652 30.7973 17.484 30.516ZM30.516 30.516C30.7972 30.2348 31.1787 30.0768 31.5765 30.0768C31.9742 30.0768 32.3557 30.2348 32.637 30.516L44.925 42.804V34.5C44.925 34.1022 45.083 33.7207 45.3643 33.4394C45.6456 33.158 46.0271 33 46.425 33C46.8228 33 47.2043 33.158 47.4856 33.4394C47.7669 33.7207 47.925 34.1022 47.925 34.5V46.425C47.925 46.8228 47.7669 47.2044 47.4856 47.4857C47.2043 47.767 46.8228 47.925 46.425 47.925H34.5C34.1021 47.925 33.7206 47.767 33.4393 47.4857C33.158 47.2044 33 46.8228 33 46.425C33 46.0272 33.158 45.6457 33.4393 45.3644C33.7206 45.083 34.1021 44.925 34.5 44.925H42.804L30.516 32.637C30.2347 32.3557 30.0768 31.9743 30.0768 31.5765C30.0768 31.1788 30.2347 30.7973 30.516 30.516ZM30.516 17.484C30.7972 17.7652 31.1787 17.9232 31.5765 17.9232C31.9742 17.9232 32.3557 17.7652 32.637 17.484L44.925 5.19601V13.5C44.925 13.8978 45.083 14.2794 45.3643 14.5607C45.6456 14.842 46.0271 15 46.425 15C46.8228 15 47.2043 14.842 47.4856 14.5607C47.7669 14.2794 47.925 13.8978 47.925 13.5V1.57501C47.925 1.17719 47.7669 0.795657 47.4856 0.514352C47.2043 0.233047 46.8228 0.0750122 46.425 0.0750122H34.5C34.1021 0.0750122 33.7206 0.233047 33.4393 0.514352C33.158 0.795657 33 1.17719 33 1.57501C33 1.97284 33.158 2.35437 33.4393 2.63567C33.7206 2.91698 34.1021 3.07501 34.5 3.07501H42.804L30.516 15.363C30.2347 15.6443 30.0768 16.0258 30.0768 16.4235C30.0768 16.8213 30.2347 17.2027 30.516 17.484ZM17.484 17.484C17.2027 17.7652 16.8212 17.9232 16.4235 17.9232C16.0257 17.9232 15.6442 17.7652 15.363 17.484L3.07495 5.19601V13.5C3.07495 13.8978 2.91692 14.2794 2.63561 14.5607C2.35431 14.842 1.97278 15 1.57495 15C1.17713 15 0.795596 14.842 0.514291 14.5607C0.232986 14.2794 0.0749512 13.8978 0.0749512 13.5V1.57501C0.0749512 1.17719 0.232986 0.795657 0.514291 0.514352C0.795596 0.233047 1.17713 0.0750122 1.57495 0.0750122H13.5C13.8978 0.0750122 14.2793 0.233047 14.5606 0.514352C14.8419 0.795657 15 1.17719 15 1.57501C15 1.97284 14.8419 2.35437 14.5606 2.63567C14.2793 2.91698 13.8978 3.07501 13.5 3.07501H5.19595L17.484 15.363C17.7652 15.6443 17.9231 16.0258 17.9231 16.4235C17.9231 16.8213 17.7652 17.2027 17.484 17.484Z" fill="white"/>
</g>
<defs>
<clipPath id="clip0_103_436">
<rect width="48" height="48" fill="white"/>
</clipPath>
</defs>
</svg>
