<svg width="48" height="48" viewBox="0 0 48 48" fill="none" xmlns="http://www.w3.org/2000/svg">
<path d="M20.412 24L3 13.899V34.101L20.412 24ZM22.788 21.912C23.1558 22.1225 23.4615 22.4265 23.674 22.7932C23.8866 23.1599 23.9986 23.5762 23.9986 24C23.9986 24.4238 23.8866 24.8401 23.674 25.2067C23.4615 25.5734 23.1558 25.8774 22.788 26.088L3.699 37.164C2.139 38.07 0 37.035 0 35.076V12.924C0 10.965 2.139 9.92997 3.699 10.836L22.788 21.912Z" fill="white"/>
<path d="M44.412 24L27 13.899V34.101L44.412 24ZM46.788 21.912C47.1558 22.1225 47.4615 22.4265 47.674 22.7932C47.8866 23.1599 47.9986 23.5762 47.9986 24C47.9986 24.4238 47.8866 24.8401 47.674 25.2067C47.4615 25.5734 47.1558 25.8774 46.788 26.088L27.699 37.164C26.139 38.07 24 37.035 24 35.076V12.924C24 10.965 26.139 9.92997 27.699 10.836L46.788 21.912Z" fill="white"/>
</svg>
