<svg width="36" height="36" viewBox="0 0 36 36" fill="none" xmlns="http://www.w3.org/2000/svg">
<path fill-rule="evenodd" clip-rule="evenodd" d="M5.625 27C5.625 26.7016 5.74353 26.4155 5.95451 26.2045C6.16548 25.9935 6.45163 25.875 6.75 25.875H29.25C29.5484 25.875 29.8345 25.9935 30.0455 26.2045C30.2565 26.4155 30.375 26.7016 30.375 27C30.375 27.2984 30.2565 27.5845 30.0455 27.7955C29.8345 28.0065 29.5484 28.125 29.25 28.125H6.75C6.45163 28.125 6.16548 28.0065 5.95451 27.7955C5.74353 27.5845 5.625 27.2984 5.625 27ZM5.625 18C5.625 17.7016 5.74353 17.4155 5.95451 17.2045C6.16548 16.9935 6.45163 16.875 6.75 16.875H29.25C29.5484 16.875 29.8345 16.9935 30.0455 17.2045C30.2565 17.4155 30.375 17.7016 30.375 18C30.375 18.2984 30.2565 18.5845 30.0455 18.7955C29.8345 19.0065 29.5484 19.125 29.25 19.125H6.75C6.45163 19.125 6.16548 19.0065 5.95451 18.7955C5.74353 18.5845 5.625 18.2984 5.625 18ZM5.625 9C5.625 8.70163 5.74353 8.41548 5.95451 8.20451C6.16548 7.99353 6.45163 7.875 6.75 7.875H29.25C29.5484 7.875 29.8345 7.99353 30.0455 8.20451C30.2565 8.41548 30.375 8.70163 30.375 9C30.375 9.29837 30.2565 9.58452 30.0455 9.79549C29.8345 10.0065 29.5484 10.125 29.25 10.125H6.75C6.45163 10.125 6.16548 10.0065 5.95451 9.79549C5.74353 9.58452 5.625 9.29837 5.625 9V9Z" fill="white"/>
</svg>
